<!-- Generated by IcoMoon.io -->
<svg version="1.1" xmlns="http://www.w3.org/2000/svg" width="1024" height="1024" viewBox="0 0 1024 1024">
<title></title>
<g id="icomoon-ignore">
</g>
<path fill="#000" d="M512 0c-282.312 0-512 229.688-512 512s229.688 512 512 512 512-229.688 512-512-229.688-512-512-512zM533.334 980.252v-62.92c0-11.792-9.542-21.334-21.334-21.334s-21.334 9.542-21.334 21.334v62.92c-241.736-10.946-435.974-205.182-446.92-446.92h62.92c11.792 0.002 21.334-9.54 21.334-21.332s-9.542-21.334-21.334-21.334h-62.92c10.946-241.736 205.182-435.974 446.92-446.92v62.92c0 11.792 9.542 21.334 21.334 21.334s21.334-9.542 21.334-21.334v-62.92c241.736 10.946 435.974 205.182 446.92 446.92h-62.92c-11.792 0-21.334 9.542-21.334 21.334s9.542 21.334 21.334 21.334h62.92c-10.946 241.736-205.184 435.974-446.92 446.918z"></path>
<path fill="#000" d="M552.562 522.396c0.882-3.414 2.104-6.71 2.104-10.396 0-8.93-3.396-16.764-8.106-23.622l134.106-287.356c4.98-10.666 0.376-23.376-10.312-28.354-10.646-4.898-23.354-0.334-28.354 10.312l-134.010 287.166c-21.552 2.126-38.656 19.756-38.656 41.854 0 23.52 19.146 42.666 42.666 42.666 3.684 0 6.982-1.222 10.396-2.104l166.52 166.52c4.166 4.166 9.626 6.25 15.084 6.25s10.916-2.084 15.084-6.25c8.334-8.334 8.334-21.834 0-30.166l-166.522-166.52z"></path>
</svg>
