<!-- Generated by IcoMoon.io -->
<svg version="1.1" xmlns="http://www.w3.org/2000/svg" width="1024" height="1024" viewBox="0 0 1024 1024">
<title></title>
<g id="icomoon-ignore">
</g>
<path fill="#557198" d="M312.198 10.972c15.189-5.142 32.030-5.194 47.219-0.026 28.069 8.972 49.343 36.175 50.971 65.635 0.761 19.151 0.131 38.299 0.341 57.45 13.116 0 26.233 0.026 39.375-0.052 0.237-20.042-0.604-40.11 0.42-60.126 3.226-38.588 40.582-70.199 79.249-66.605 35.571 1.731 66.789 32.266 69.359 67.733 1.024 19.649 0.211 39.349 0.472 59.050 14.402 0 28.803 0 43.206 0-0.026-18.416 0.078-36.832-0.078-55.22-1.785-41.763 40.687-76.862 81.349-71.301 34.391 2.991 63.903 32.871 66.526 67.261 1.076 19.727 0.211 39.506 0.498 59.261 13.038 0.026 26.101-0.157 39.166 0.157 1.024-21.931-1.285-43.993 1.391-65.818 5.326-30.823 31.951-56.689 63.116-60.52 31.138-5.011 63.457 12.644 77.281 40.713 12.381 24.37 6.585 52.518 7.87 78.699 11.201 0.263 22.455-0.787 33.63 0.393 8.788 6.978 9.103 19.779 10.335 30.062 0.105 14.009 0.472 30.403-9.233 41.58-11.201 3.017-23.294 0.709-34.838 1.259 0.263 159.391 0.263 318.782 0 478.173 11.542 0.55 23.61-1.731 34.81 1.207 9.207 10.441 9.155 25.76 9.365 38.956-1.050 11.122-1.102 24.868-10.283 32.712-11.228 1.207-22.534 0.157-33.788 0.42 0 20.54 0.157 41.106-0.026 61.648-0.105 19.544-8.027 38.904-21.931 52.65-20.094 20.042-52.098 27.597-78.699 17.051-28.043-9.733-48.295-37.749-48.741-67.392-0.183-23.557-0.052-47.115-0.026-70.672-13.142-0.105-26.286-0.052-39.402-0.052-0.078 22.823 0.131 45.645-0.105 68.468-0.131 15.792-5.194 31.558-14.69 44.202-16.842 23.112-47.876 34.89-75.787 28.488-32.11-6.637-59.706-36.832-57.765-70.488 0.131-23.557 0.026-47.115 0.052-70.672-14.402 0-28.803 0-43.206 0-0.078 22.744 0.131 45.488-0.078 68.205-0.131 15.87-5.142 31.716-14.69 44.439-16.37 22.481-46.117 34.234-73.426 29.040-32.791-5.613-59.68-34.995-61.148-68.442-0.498-24.397 0.026-48.845-0.237-73.268-13.116 0.026-26.207 0-39.297 0.026-0.211 24.318 0.393 48.663-0.289 72.979-1.443 31.138-24.659 59.391-54.8 67.131-23.427 6.978-49.711 0.446-68.311-15.083-16.422-13.929-26.338-35.204-26.127-56.768-0.078-22.534 0.105-45.069-0.078-67.602-26.26 4.932-50.498 22.351-60.65 47.456-6.218 13.694-6.637 28.936-6.27 43.704 0.052 42.497 0.026 85.021 0.026 127.518 5.746 2.178 12.461 3.252 16.868 7.896 1.233 9.916 0.472 20.016 0.524 30.010 0.998 6.689-6.926 8.84-11.831 10.572-21.747 5.326-44.937 5.326-66.711 0.078-5.037-1.678-13.011-3.724-12.224-10.572-0.157-9.707-0.42-19.464 0.211-29.145 3.148-5.404 10.257-6.007 15.451-8.5-0.026-46.117 0.026-92.234-0.026-138.353-0.393-15.32 4.565-29.984 7.844-44.78 4.224-19.885 17.235-36.175 29.643-51.678 12.487-11.568 26.233-22.219 41.632-29.59 14.638-5.929 30.325-8.42 45.593-12.172 0.026-165.53-0.026-331.058 0.026-496.588-35.467-0.078-70.933 0.026-106.4-0.052-19.518-0.315-39.166 6.559-53.909 19.412-17.366 14.376-27.388 36.858-27.362 59.339-0.026 231.426 0 462.853 0 694.305 5.509 2.439 13.038 3.043 16.344 8.683 0.42 11.175 1.024 22.508-0.393 33.63-9.837 8.263-23.714 8.394-35.886 9.681-18.048 0.315-37.749 0.761-53.62-9.103 0.211-12.198 0-24.397 0.211-36.569 5.089-2.387 10.335-4.511 15.635-6.374 0-231.479-0.026-462.959 0-694.437 0.078-6.978 1.076-13.903 2.728-20.645 4.118-16.631 6.637-34.312 16.737-48.663 7.974-11.175 15.057-23.453 26.233-31.768 13.877-10.992 28.384-22.325 45.96-26.469 15.583-3.724 31.138-8.894 47.324-8.735 35.467 0.052 70.907 0 106.348 0.026 0.341-20.042-0.576-40.11 0.472-60.126 2.65-28.41 23.453-54.145 50.55-62.933zM326.154 55.989c-10.52 3.594-17.996 14.612-17.733 25.655 0.026 243.914 0.026 487.853 0 731.793-0.446 10.468 6.059 20.803 15.766 24.842 16.92 9.339 40.347-5.404 39.271-24.712 0.052-244.070 0.078-488.114-0.026-732.186 0.55-18.257-20.357-32.897-37.277-25.394zM514.953 56.015c-10.494 3.594-17.89 14.612-17.655 25.603 0.026 243.992 0.026 487.958 0 731.95-0.42 10.468 6.139 20.724 15.844 24.738 16.92 9.287 40.215-5.457 39.193-24.712 0.052-244.070 0.078-488.142-0.026-732.212 0.55-18.284-20.436-32.923-37.356-25.366zM706.532 55.989c-10.546 3.568-17.996 14.638-17.733 25.682 0.026 243.887 0.026 487.775 0 731.687-0.498 10.494 6.033 20.855 15.766 24.895 16.92 9.392 40.319-5.378 39.271-24.712 0.052-244.096 0.078-488.194-0.026-732.291 0.446-18.231-20.409-32.738-37.277-25.262zM895.328 56.015c-10.468 3.594-17.89 14.585-17.655 25.577 0.026 243.992 0.026 487.984 0 731.95-0.446 10.52 6.191 20.803 15.95 24.816 16.894 9.155 40.11-5.535 39.086-24.738 0.052-244.070 0.078-488.142-0.026-732.212 0.55-18.311-20.409-32.949-37.356-25.394zM410.729 191.744c0 165.267 0 330.534 0 495.801 13.116 0 26.233 0.026 39.349-0.026 0-165.267 0-330.508 0.026-495.749-13.142-0.052-26.26-0.026-39.375-0.026zM599.606 191.744c0 165.267 0 330.534 0 495.801 14.402 0 28.803 0 43.206 0 0-165.267 0-330.534 0-495.801-14.402 0-28.803 0-43.206 0zM791.107 191.744c0 165.267 0 330.534 0 495.801 13.116 0 26.233 0.026 39.349-0.026 0-165.241-0.026-330.508 0.026-495.749-13.142-0.052-26.26-0.026-39.375-0.026z"></path>
</svg>
