<!-- Generated by IcoMoon.io -->
<svg version="1.1" xmlns="http://www.w3.org/2000/svg" width="1024" height="1024" viewBox="0 0 1024 1024">
<title></title>
<g id="icomoon-ignore">
</g>
<path fill="#000" d="M948.358 162.906c-73.256 0-132.852-59.598-132.852-132.85v-30.056h-607.014v30.056c0 73.256-59.598 132.85-132.85 132.85h-30.056v199.876c0 143.63 43.266 281.932 125.126 399.952 81.86 118.018 196.234 207.002 330.758 257.326l10.53 3.94 10.532-3.94c134.526-50.324 248.9-139.306 330.756-257.326 81.86-118.020 125.126-256.322 125.126-399.952v-199.876h-30.056zM918.304 362.782h-0.002c0 131.328-39.562 257.78-114.41 365.69-72.698 104.816-173.454 184.586-291.894 231.24-118.438-46.656-219.196-126.424-291.894-231.24-74.846-107.908-114.406-234.362-114.406-365.69v-142.1c82.38-12.94 147.63-78.19 160.57-160.57h491.466c12.938 82.38 78.188 147.63 160.57 160.57v142.1z"></path>
<path fill="#000" d="M646.116 282.374l-198.954 198.956-69.282-69.282-127.516 127.518 196.798 196.798 326.47-326.472-127.516-127.518zM335.376 539.57l42.506-42.506 69.282 69.282 198.954-198.956 42.506 42.506-241.46 241.46-111.788-111.786z"></path>
</svg>
