<!-- Generated by IcoMoon.io -->
<svg version="1.1" xmlns="http://www.w3.org/2000/svg" width="1024" height="1024" viewBox="0 0 1024 1024">
<title></title>
<g id="icomoon-ignore">
</g>
<path fill="#000" d="M1004.041 382h-3.992v-20c0-11.044-8.938-20-19.962-20h-19.96v-40h29.942c11.024 0 19.96-8.956 19.96-20s-8.938-20-19.96-20h-99.806c-11.024 0-19.962 8.956-19.962 20s8.938 20 19.962 20h29.942v40h-19.962c-11.024 0-19.96 8.956-19.96 20v20h-49.902c-11.024 0-19.96 8.956-19.96 20v10h-39.922c0 0 0-9.978 0-10 0-14.974-16.958-24.802-29.91-17.338l-75.226 43.338h-70.524v-82.662c0 0 43.186-75.254 43.254-75.37 7.108-12.386-2.152-29.968-17.302-29.968h-9.98v-220c0-11.044-8.938-20-19.96-20h-159.69c-11.024 0-19.962 8.956-19.962 20v220c0 0-9.94 0-9.98 0-14.762 0-24.654 17.164-17.304 29.968l43.254 75.37v82.662h-82.5c0 0-75.098-43.266-75.224-43.338-13.052-7.52-29.91 2.272-29.91 17.338v10h-219.572c-11.024 0-19.962 8.956-19.962 20v160c0 11.044 8.938 20 19.962 20h219.572c0 0 0 9.988 0 10 0 14.792 16.824 24.882 29.91 17.338l75.222-43.338h82.5v82.662c0 0-43.054 75.022-43.252 75.368-7.352 12.812 2.638 29.97 17.304 29.97h9.98v220c0 11.044 8.938 20 19.962 20h159.688c11.024 0 19.96-8.956 19.96-20v-220c0 0 9.934 0 9.98 0 14.976 0 24.766-16.972 17.304-29.968l-43.254-75.37v-82.662h70.524c0 0 75.18 43.312 75.224 43.338 12.874 7.418 29.91-2.086 29.91-17.338v-10h39.922v10c0 11.044 8.938 20 19.96 20h173.66c11.024 0 19.96-8.956 19.96-20v-220c0.002-11.044-8.936-20-19.958-20zM239.533 572h-199.61v-120h199.61v120zM319.377 564.43l-39.922 23v-150.86l39.922 23v104.86zM451.119 40h39.922v40c0 11.044 8.938 20 19.962 20s19.96-8.956 19.96-20v-40h39.922v200h-119.766v-200zM586.287 280l-22.956 40h-104.654l-22.956-40h150.566zM570.887 984h-39.922v-60c0-11.020-8.962-20-19.96-20s-19.962 8.98-19.962 20v60h-39.922v-200h119.766v200zM435.721 744l22.956-40h104.654l22.954 40h-150.564zM662.707 556h-87.828c-11.024 0-19.96 8.956-19.96 20v88h-87.828v-88c0-11.044-8.938-20-19.96-20h-87.828v-88h87.828c11.024 0 19.96-8.956 19.96-20v-88h87.828v88c0 11.044 8.938 20 19.96 20h87.828v88zM730.575 587.43l-39.922-23v-104.86l39.922-23v150.86zM810.419 572h-39.922v-120h39.922v120zM984.079 602h-133.738v-180h49.902c11.024 0 19.962-8.956 19.962-20v-20h39.922v20c0 11.044 8.938 20 19.96 20h3.992v180z"></path>
</svg>
