<!-- Generated by IcoMoon.io -->
<svg version="1.1" xmlns="http://www.w3.org/2000/svg" width="1024" height="1024" viewBox="0 0 1024 1024">
<title></title>
<g id="icomoon-ignore">
</g>
<path fill="#000" d="M397.528 260.163h-156.098v-154.016h43.707v-85.333h-285.137v85.333h43.707v237.268c0 31.913 11.1 58.624 33.301 80.13s48.563 32.26 79.089 32.26h241.431v41.626h85.333v-278.893h-85.333v41.626z"></path>
<path fill="#000" d="M980.292 609.821v-237.268c0-31.915-11.1-58.624-33.301-80.13s-48.563-32.26-79.089-32.26h-241.431v-41.626h-85.333v278.893h85.333v-41.626h156.098v154.016h-43.707v83.252h285.137v-83.252h-43.707z"></path>
<path fill="#000" d="M959.479 926.178c0-12.488-6.591-32.26-19.772-59.317s-26.364-50.992-39.545-71.805l-19.772-31.22c-51.339 79.089-77.008 133.203-77.008 162.341 0 20.813 7.632 38.852 22.894 54.114 15.266 15.262 33.65 22.894 55.154 22.894 21.506 0 39.892-7.632 55.154-22.894s22.894-33.301 22.894-54.114z"></path>
</svg>
