<!-- Generated by IcoMoon.io -->
<svg version="1.1" xmlns="http://www.w3.org/2000/svg" width="1024" height="1024" viewBox="0 0 1024 1024">
<title></title>
<g id="icomoon-ignore">
</g>
<path fill="#000" d="M517.925 445.030c64.603 0 117.185-52.583 117.185-117.185s-52.583-117.185-117.185-117.185-117.185 52.583-117.185 117.185 52.566 117.185 117.185 117.185zM517.925 244.141c46.154 0 83.704 37.55 83.704 83.704s-37.55 83.704-83.704 83.704-83.704-37.55-83.704-83.704 37.55-83.704 83.704-83.704z"></path>
<path fill="#000" d="M840.654 629.178h-119.881l51.009-73.659c96.343-128.419 82.398-339.503-29.815-451.7-60.618-60.635-141.242-94.033-227.005-94.033-85.746 0-166.37 33.398-227.005 94.033-112.213 112.197-126.159 323.298-30.2 451.197l51.361 74.178h-125.773l-183.345 385.021h1024l-183.345-385.038zM284.927 535.43c-87.035-116.064-74.563-306.691 26.718-407.956 54.307-54.307 126.527-84.223 203.334-84.223s149.010 29.916 203.334 84.223c101.282 101.265 113.754 291.909 26.333 408.458l-229.683 331.685-230.035-332.187zM204.504 662.66h127.799l182.659 263.784 182.642-263.784h121.89l151.471 318.075h-917.93l151.471-318.075z"></path>
</svg>
