<!-- Generated by IcoMoon.io -->
<svg version="1.1" xmlns="http://www.w3.org/2000/svg" width="1024" height="1024" viewBox="0 0 1024 1024">
<title></title>
<g id="icomoon-ignore">
</g>
<path fill="#000" d="M75.969 893.922h133.652v-45.106c-20.418-1.54-55.49-7.89-79.896-32.296-35.574-35.576-32.794-93.83-32.656-96.292l0.738-13.412 13.412-0.74c2.46-0.14 60.72-2.916 96.294 32.658 7.42 7.422 13.154 15.836 17.61 24.518 4.456-8.682 10.188-17.096 17.61-24.518 35.574-35.572 93.834-32.794 96.294-32.658l13.412 0.74 0.738 13.412c0.136 2.462 2.918 60.716-32.656 96.292-24.814 24.814-60.644 30.962-80.898 32.368v45.034h250.018v-45.106c-20.42-1.54-55.49-7.89-79.896-32.296-35.574-35.576-32.794-93.83-32.656-96.292l0.738-13.412 13.412-0.74c2.458-0.14 60.72-2.916 96.294 32.658 7.42 7.422 13.154 15.836 17.61 24.518 4.454-8.682 10.188-17.096 17.61-24.518 35.574-35.572 93.834-32.794 96.294-32.658l13.412 0.74 0.738 13.412c0.136 2.462 2.918 60.716-32.656 96.292-24.814 24.814-60.644 30.962-80.898 32.368v45.034h250.020v-45.106c-20.42-1.54-55.49-7.89-79.896-32.296-35.574-35.576-32.794-93.83-32.656-96.292l0.738-13.412 13.412-0.74c2.462-0.14 60.72-2.916 96.294 32.658 7.42 7.422 13.154 15.836 17.61 24.518 4.454-8.682 10.188-17.096 17.61-24.518 35.574-35.572 93.834-32.794 96.294-32.658l13.412 0.74 0.738 13.412c0.136 2.462 2.918 60.716-32.656 96.292-24.814 24.814-60.644 30.962-80.898 32.368v45.034h148.364c41.358 0 75.006 33.646 75.006 75.006v55.072h-1022.069v-55.074c0-41.358 33.646-75.004 75.004-75.004zM299.305 795.304c16.884-16.884 21.936-42.62 23.394-58.712-16.128 1.494-41.97 6.574-58.75 23.354-16.882 16.882-21.934 42.61-23.394 58.712 16.128-1.494 41.97-6.574 58.75-23.354zM579.323 795.304c16.884-16.884 21.936-42.62 23.394-58.712-16.128 1.494-41.97 6.574-58.75 23.354-16.882 16.882-21.934 42.61-23.394 58.712 16.13-1.494 41.972-6.574 58.75-23.354zM859.343 795.304c16.884-16.884 21.936-42.62 23.394-58.712-16.128 1.494-41.97 6.574-58.75 23.354-16.882 16.882-21.934 42.61-23.394 58.712 16.128-1.494 41.97-6.574 58.75-23.354zM186.297 759.948c-16.884-16.884-42.62-21.934-58.712-23.394 1.494 16.13 6.574 41.97 23.356 58.752 16.88 16.882 42.61 21.932 58.712 23.392-1.494-16.13-6.576-41.97-23.356-58.75zM466.315 759.948c-16.884-16.884-42.62-21.934-58.712-23.394 1.494 16.13 6.574 41.97 23.356 58.752 16.88 16.882 42.61 21.932 58.712 23.392-1.494-16.13-6.574-41.97-23.356-58.75zM746.335 759.948c-16.884-16.884-42.62-21.934-58.712-23.394 1.494 16.13 6.574 41.97 23.356 58.752 16.88 16.882 42.61 21.932 58.712 23.392-1.494-16.13-6.574-41.97-23.356-58.75zM30.965 993.998h962.065v-25.072c0-24.816-20.19-45.004-45.004-45.004h-872.059c-24.814 0-45.004 20.188-45.004 45.004v25.072z"></path>
<path fill="#000" d="M79.211 238.318c-20.962-25.776-32.366-57.692-32.366-91.37 0-38.77 15.098-75.222 42.512-102.636 59.088-59.086 155.22-59.082 214.306 0 39.954 39.954 54.274 99.548 37.224 153.198l97.468 97.47-92.5 92.5 110.268 9.614-6.69 83.244-208.382 11.944-30.4 30.4-207.902-207.904 76.462-76.46zM282.447 65.526c-47.388-47.386-124.49-47.384-171.876 0-21.75 21.75-33.726 50.666-33.726 81.422 0.002 25.648 8.356 50 23.738 70l129.87-129.87 85.674 85.674c6.784-38.618-5.478-79.024-33.68-107.226zM395.929 294.982l-165.476-165.476-24.044 24.044 165.476 165.476 24.044-24.044zM210.655 480.256l17.272-17.27 193.702-11.102 2.208-27.488-144.704-12.616 71.54-71.538-165.476-165.476-140.016 140.018 165.474 165.472z"></path>
<path fill="#000" d="M562.483 480.832l-5.25 29.538c-8.982-1.596-18.144-2.406-27.232-2.406v-30.002c10.842 0 21.772 0.964 32.482 2.87z"></path>
<path fill="#000" d="M602.167 492.734c10.272 4.474 19.962 9.93 28.8 16.222l-17.396 24.444c-7.146-5.086-15.016-9.512-23.386-13.158l11.982-27.508z"></path>
<path fill="#000" d="M691.513 606.086c1.932 10.206 3.078 21.020 3.4 32.134l-29.99 0.87c-0.276-9.538-1.248-18.764-2.888-27.42l29.478-5.584z"></path>
<path fill="#000" d="M661.483 538.040c6.788 8.672 12.64 18.228 17.398 28.396l-27.178 12.71c-3.796-8.118-8.456-15.728-13.848-22.618l23.628-18.488z"></path>
<path fill="#000" d="M516.263 405.968h-28.282v30.002h28.282v-30.002z"></path>
<path fill="#000" d="M624.937 410.564c10.538 2.128 20.954 5.024 30.956 8.61l-10.126 28.242c-8.642-3.096-17.65-5.602-26.768-7.444l5.938-29.408z"></path>
<path fill="#000" d="M787.199 543.766c4.316 9.662 8.064 19.71 11.136 29.864l-28.716 8.69c-2.706-8.95-6.006-17.804-9.812-26.314l27.392-12.24z"></path>
<path fill="#000" d="M578.003 405.958c2.238 0 4.464 0.030 6.676 0.090l-0.804 29.992c-1.946-0.054-3.904-0.080-5.872-0.080h-23.728v-30.002h23.728z"></path>
<path fill="#000" d="M806.891 613.090c1.412 10.598 2.126 21.326 2.126 31.884h-30.002c0.002-9.238-0.626-18.634-1.864-27.924l29.74-3.96z"></path>
<path fill="#000" d="M692.777 436.446c9.18 5.396 18.080 11.544 26.452 18.278l-18.802 23.38c-7.238-5.818-14.93-11.132-22.856-15.792l15.206-25.866z"></path>
<path fill="#000" d="M748.461 482.87c6.942 7.968 13.446 16.538 19.334 25.464l-25.048 16.518c-5.154-7.816-10.844-15.31-16.91-22.276l22.624-19.706z"></path>
<path fill="#000" d="M284.867 363.571l21.214-21.214-21.213-21.213-21.214 21.214 21.213 21.213z"></path>
<path fill="#000" d="M263.711 384.754l-21.214-21.214-21.213 21.213 21.214 21.214 21.213-21.213z"></path>
<path fill="#000" d="M140.645 261.746l21.216 21.214-31.822 31.822 31.822 31.822-21.216 21.214-53.036-53.036z"></path>
<path fill="#000" d="M904.025 949.984h-40.002v30.002h40.002v-30.002z"></path>
<path fill="#000" d="M756.019 949.984h-108.008v30.002h108.008v-30.002z"></path>
<path fill="#000" d="M538.005 949.984h-42.002v30.002h42.002v-30.002z"></path>
<path fill="#000" d="M431.997 949.984h-204.014v30.002h204.014v-30.002z"></path>
<path fill="#000" d="M159.979 949.984h-70.004v30.002h70.004v-30.002z"></path>
</svg>
