<!-- Generated by IcoMoon.io -->
<svg version="1.1" xmlns="http://www.w3.org/2000/svg" width="1024" height="1024" viewBox="0 0 1024 1024">
<title></title>
<g id="icomoon-ignore">
</g>
<path fill="#000" d="M831.753 745.117c0 48.681-39.467 88.132-88.132 88.132h-480.721c-48.665 0-88.132-39.451-88.132-88.132v-656.985c0-48.681 39.467-88.132 88.132-88.132h480.721c48.665 0 88.132 39.451 88.132 88.132v656.985zM783.681 88.131c0-22.129-17.931-40.060-40.060-40.060h-480.721c-22.129 0-40.060 17.931-40.060 40.060v656.985c0 22.129 17.931 40.060 40.060 40.060h480.721c22.129 0 40.060-17.931 40.060-40.060v-656.985z"></path>
<path fill="#000" d="M703.56 865.297c0 8.845-7.163 16.024-16.024 16.024h-96.144c-8.861 0-16.024-7.179-16.024-16.024v-32.048c0-8.845 7.163-16.024 16.024-16.024h96.144c8.861 0 16.024 7.179 16.024 16.024v32.048z"></path>
<path fill="#000" d="M754.292 1023.999c-40.861 0-73.422-10.912-97.218-32.689-47.047-43.025-39.019-110.678-38.65-113.546 1.666-13.172 13.781-22.562 26.872-20.799 13.156 1.683 22.45 13.652 20.831 26.776-0.112 0.865-4.951 46.438 23.619 72.3 22.962 20.799 64.561 25.334 120.308 13.108 150.754-33.058 174.229-18.091 185.254 0.096 8.172 13.444 4.166 28.667-3.445 37.785-8.509 10.191-23.635 11.585-33.843 3.093-3.99-3.333-6.634-7.676-7.868-12.355-14.342-0.897-49.434 0.721-129.811 18.348-23.956 5.256-45.989 7.884-66.051 7.884z"></path>
<path fill="#000" d="M447.176 833.249c0-8.845-7.163-16.024-16.024-16.024h-96.144c-8.845 0-16.024 7.179-16.024 16.024v32.048c0 8.845 7.179 16.024 16.024 16.024h96.144c8.861 0 16.024-7.179 16.024-16.024v-32.048z"></path>
<path fill="#000" d="M269.694 1023.999c-20.046 0-42.079-2.628-66.051-7.884-80.296-17.626-115.325-19.293-129.795-18.348-1.234 4.679-3.862 9.022-7.868 12.355-10.191 8.477-25.334 7.115-33.843-3.077-7.611-9.134-11.617-24.357-3.445-37.801 11.057-18.187 34.42-33.17 185.254-0.096 55.732 12.242 97.346 7.708 120.308-13.108 28.699-25.975 23.684-71.836 23.619-72.3-1.538-13.14 7.82-25.126 20.959-26.728 13.012-1.683 25.078 7.643 26.76 20.751 0.353 2.868 8.381 70.522-38.666 113.546-23.796 21.761-56.341 32.689-97.234 32.689z"></path>
<path fill="#000" d="M515.663 758.449c-63.407 0-115.005-51.581-115.005-115.005 0-63.407 51.597-115.005 115.005-115.005s114.988 51.597 114.988 115.005c-0.016 63.423-51.581 115.005-114.988 115.005zM515.663 576.512c-36.903 0-66.932 30.029-66.932 66.932s30.029 66.932 66.932 66.932c36.887 0 66.916-30.029 66.916-66.932-0.016-36.903-30.045-66.932-66.916-66.932z"></path>
<path fill="#000" d="M519.284 616.924c-13.268 0-24.036-10.752-24.036-24.036v-48.072c0-13.284 10.768-24.036 24.036-24.036s24.036 10.752 24.036 24.036v48.072c0 13.284-10.768 24.036-24.036 24.036z"></path>
<path fill="#000" d="M568.526 176.263h-128.192c-13.268 0-24.036-10.752-24.036-24.036s10.768-24.036 24.036-24.036h128.192c13.284 0 24.036 10.752 24.036 24.036s-10.752 24.036-24.036 24.036z"></path>
</svg>
