<!-- Generated by IcoMoon.io -->
<svg version="1.1" xmlns="http://www.w3.org/2000/svg" width="1024" height="1024" viewBox="0 0 1024 1024">
<title></title>
<g id="icomoon-ignore">
</g>
<path fill="#000" d="M998.928 127.469c-16.709-16.709-36.796-25.063-60.258-25.063h-853.337c-23.466 0-43.549 8.352-60.27 25.063-16.711 16.713-25.063 36.796-25.063 60.264v648.525c0 23.473 8.352 43.558 25.063 60.27 16.721 16.711 36.804 25.067 60.27 25.067h853.337c23.462 0 43.547-8.356 60.258-25.067 16.709-16.709 25.072-36.794 25.072-60.27v-648.525c0-23.468-8.363-43.551-25.072-60.264zM955.726 836.27c0 4.629-1.687 8.617-5.064 12.006-3.375 3.362-7.377 5.049-11.993 5.049h-853.337c-4.62 0-8.621-1.687-11.998-5.062-3.375-3.387-5.066-7.377-5.066-12.006v-324.257h887.46v324.27zM955.726 307.193h-887.46v-119.467c0-4.621 1.685-8.613 5.066-11.998 3.379-3.368 7.381-5.059 11.998-5.059h853.337c4.616 0 8.617 1.683 11.993 5.059 3.377 3.385 5.064 7.377 5.064 11.998v119.467h0.002z"></path>
<path fill="#000" d="M136.536 716.792h136.531v68.272h-136.531v-68.272z"></path>
<path fill="#000" d="M341.337 716.792h204.798v68.272h-204.798v-68.272z"></path>
</svg>
