<!-- Generated by IcoMoon.io -->
<svg version="1.1" xmlns="http://www.w3.org/2000/svg" width="1024" height="1024" viewBox="0 0 1024 1024">
<title></title>
<g id="icomoon-ignore">
</g>
<path fill="#557198" d="M74.581 171.629c32.058-30.496 73.924-51.51 118.328-55.169 14.421-0.536 29.168-1.56 43.24 2.493 23.833 6.080 43.31 22.342 59.991 39.723 25.418 27.515 51.371 55.192 83.102 75.553 55.448 36.087 121.543 51.138 186.543 57.871 40.957 4.497 82.216 2.259 123.337 3.261 44.451-1.118 89.439 7.735 129.231 27.887 48.087 23.926 87.086 62.787 118.234 106.003 21.783 29.239 38.79 62.438 46.478 98.245 6.010 25.93 6.686 52.722 5.149 79.212-1.164 12.72-2.469 25.791-8.899 37.136 10.53 9.528 19.174 21.037 26.349 33.245 8.713 14.911 11.602 32.104 15.633 48.645 3.284 12.254 3.379 25.254 1.328 37.719-5.009 20.525-8.341 41.866-18.475 60.667-17.17 32.454-44.801 60.387-79.282 73.947-19.943 5.825-41.121 12.115-61.971 7.152-11.229-2.819-22.925-4.566-33.338-9.831-7.851-3.564-14.444-9.225-21.946-13.326-4.007 0.023-7.478 2.377-11.067 3.89-28.399 13.629-59.619 21.061-91.070 22.109-43.449-0.676-86.456-14.701-122.173-39.373-11.044-7.501-20.921-16.564-32.197-23.717-92.724-59.293-185.053-119.19-276.635-180.253-68.402-46.013-137.059-91.839-202.688-141.812-13.069-10.158-26.117-20.408-37.742-32.22-16.145-16.797-25.721-38.977-30.077-61.645-5.126-23.553-4.147-47.853-3.238-71.779 3.798-41.353 12.884-82.24 27.048-121.287 4.286-10.6 7.898-21.9 14.911-31.033 12.208-9.552 20.106-23.298 31.894-33.315zM79.684 217.199c17.589 26.885 45.057 44.965 69.613 64.907 14.398 12.791 33.222 18.545 50.929 25.138 62.787 21.014 129.604 27.048 195.489 26.186 31.847 0.233 63.625-1.91 95.31-5.009 12.021-0.139 23.414-4.381 35.203-6.174-52.139-9.109-104.327-23.018-150.385-49.811-36.251-20.549-67.33-49.041-94.938-80.004-12.418-13.117-25.092-26.652-41.097-35.458-15.726-8.899-34.458-7.012-51.72-5.335-43.1 5.964-82.077 31.405-108.403 65.56zM33.787 380.631c0.465 24.486 2.516 50.112 14.631 71.943 6.989 12.884 18.498 22.319 29.681 31.428 21.061 17.054 42.984 32.989 64.977 48.832 117.466 83.545 238.799 161.452 359.34 240.453-27.048-50.602-39.978-107.658-45.43-164.434-102.276-94.471-204.831-188.617-308.318-281.759-11.276-11.067-26.14-17.077-38.721-26.372-19.267-13.932-37.835-30.031-50.485-50.392-15.284 41.702-23.95 85.921-25.673 130.303zM649.261 331.589c4.52 14.189 11.905 27.235 17.776 40.91 11.090 23.227 20.572 47.27 32.803 69.916 10.018-3.332 20.758-2.633 31.172-2.796 21.643-0.233 42.797 6.36 61.832 16.309 19.033 8.69 37.392 19.454 52.35 34.271 27.491 25.953 42.75 63.649 43.59 101.228 20.595 10.391 42.051 18.964 62.95 28.749 4.985-28.913 3.657-58.756-2.68-87.366-7.595-34.271-25.58-65.070-47.085-92.42-34.34-45.71-80.4-85.292-136.313-101.018-37.649-11.671-77.534-10.414-116.394-7.781zM511.922 360.617c-44.242 5.545-88.81 7.269-133.355 7.875 44.195 15.795 88.856 30.519 134.356 42.215 49.693 13.791 100.156 24.742 150.292 36.717-0.536-2.143-1.164-4.24-1.863-6.314-15.563-34.527-31.824-68.774-47.085-103.441-34.69 4.823-68.332 15.004-102.346 22.948zM225.898 351.253c13.046 9.715 24.043 21.806 36.507 32.22 72.292 66.211 144.631 132.423 216.806 198.774 32.616-11.136 64.907-23.252 97.687-33.875-16.425-11.835-34.387-21.433-51.394-32.407-75.345-46.291-150.618-92.7-225.963-138.993-11.648-7.292-25.045-10.764-37.835-15.492-11.835-3.682-23.507-8.2-35.808-10.227zM465.187 439.526c13.559 6.989 26.372 15.307 39.42 23.204 39.839 24.673 79.934 48.994 119.679 73.806 7.339 4.147 10.042 13.652 6.85 21.294-4.8 10.111-4.916 21.527-6.080 32.454-4.054 45.919-2.307 93.913 15.492 137.036 4.939 10.018 9.132 21.551 18.545 28.237 36.182 21.527 72.758 42.424 108.845 64.114-2.050-11.183-5.429-22.109-6.383-33.479-1.934-16.518 1.188-33.060 4.985-49.087 4.263-20.805 12.743-40.794 25.372-57.895 19.081-26.932 46.386-49.88 78.932-57.871-23.344-11.252-47.154-21.48-70.731-32.197-111.689-49.763-223.027-100.296-334.924-149.616zM492.049 614.747c7.269 62.787 24.649 126.318 62.367 177.969 10.88 14.585 23.018 28.679 38.697 38.278 19.989 20.431 47.689 31.265 74.947 38.138 33.572 8.621 69.077 3.471 101.134-8.55-2.143-2.166-4.427-4.194-7.105-5.615-14.305-8.177-28.422-16.658-42.658-24.974-9.273-5.707-20.572-5.987-30.403-10.345-32.803-11.602-59.758-37.066-74.924-68.168-21.41-41.516-25.837-89.346-24.649-135.335 0.536-12.278-0.046-24.742 2.562-36.81-33.432 11.439-66.981 22.738-99.969 35.412zM887.407 651.184c-9.016 1.817-17.753 4.846-25.837 9.248-50.207 26.722-76.998 89.789-63.137 144.654 6.43 25.277 22.576 49.135 46.712 60.341 22.366 11.276 49.6 10.018 71.989-0.512 51.907-23.926 80.795-86.224 69.753-141.625-4.497-23.671-17.473-46.222-37.508-60.015-17.776-12.418-40.864-16.448-61.971-12.092z"></path>
</svg>
