<!-- Generated by IcoMoon.io -->
<svg version="1.1" xmlns="http://www.w3.org/2000/svg" width="1024" height="1024" viewBox="0 0 1024 1024">
<title></title>
<g id="icomoon-ignore">
</g>
<path fill="#000" d="M640 1024v-96h32v-96h32v-96l0.016-88.928c100.336-65.328 159.984-174.96 159.984-295.072 0-194.096-157.904-352-352-352s-352 157.904-352 352c0 119.344 61.072 232.224 160 296.8v183.2h32v96h32v96h256zM608 992h-192v-64h192v64zM344.384 626.368c-94-57.888-152.384-163.008-152.384-274.368 0-176.448 143.552-320 320-320s320 143.552 320 320c0 111.92-56.976 213.856-152.368 272.656l-7.632 4.688v74.656h-77.424l45.248-301.632-31.664-4.752-1.728 11.552-44.944 33.696-49.488-49.488-49.504 49.504-44.944-33.696-1.728-11.552-31.664 4.752 45.264 301.616h-77.424v-72.944l-7.616-4.688zM461.776 704l-37.456-249.76 41.184 30.896 46.496-46.512 46.496 46.496 41.184-30.896-37.456 249.776h-100.448zM352 736h320v64h-320v-64zM384 832h256v64h-256v-64z"></path>
</svg>
