<!-- Generated by IcoMoon.io -->
<svg version="1.1" xmlns="http://www.w3.org/2000/svg" width="1024" height="1024" viewBox="0 0 1024 1024">
<title></title>
<g id="icomoon-ignore">
</g>
<path fill="#000" d="M572 432h-120c-8.284 0-15 6.716-15 15s6.716 15 15 15h120c8.284 0 15-6.716 15-15s-6.716-15-15-15z"></path>
<path fill="#000" d="M1009 192h-47.58c-6.192-17.458-22.864-30-42.42-30h-190c-8.284 0-15 6.716-15 15v15h-404v-15c0-8.284-6.716-15-15-15h-190c-19.556 0-36.228 12.542-42.42 30h-47.58c-8.284 0-15 6.716-15 15v240c0 8.284 6.716 15 15 15h47.58c6.192 17.458 22.864 30 42.42 30h190c8.284 0 15-6.716 15-15v-15h67v90h-15c-8.284 0-15 6.716-15 15v190c0 19.556 12.542 36.228 30 42.42v47.58c0 8.284 6.716 15 15 15h240c8.284 0 15-6.716 15-15v-47.58c17.458-6.192 30-22.864 30-42.42v-190c0-8.284-6.716-15-15-15h-15v-90h67v15c0 8.284 6.716 15 15 15h190c19.556 0 36.228-12.542 42.42-30h47.58c8.284 0 15-6.716 15-15v-240c0-8.284-6.716-15-15-15zM60 432h-30v-210h30v210zM220 462h-115c-8.272 0-15-6.728-15-15v-240c0-8.272 6.728-15 15-15h115v270zM280 462h-30v-270h30v270zM617 832h-210v-30h210v30zM647 757c0 8.272-6.728 15-15 15h-240c-8.272 0-15-6.728-15-15v-115h270v115zM647 612h-270v-30h270v30zM714 432h-82c-8.284 0-15 6.716-15 15v105h-210v-105c0-8.284-6.716-15-15-15h-82v-210h404v210zM774 462h-30v-270h30v270zM934 447c0 8.272-6.728 15-15 15h-115v-270h115c8.272 0 15 6.728 15 15v240zM994 432h-30v-210h30v210z"></path>
<path fill="#000" d="M175 222h-40c-8.284 0-15 6.716-15 15s6.716 15 15 15h40c8.284 0 15-6.716 15-15s-6.716-15-15-15z"></path>
<path fill="#000" d="M175 282h-40c-8.284 0-15 6.716-15 15s6.716 15 15 15h40c8.284 0 15-6.716 15-15s-6.716-15-15-15z"></path>
<path fill="#000" d="M175 342h-40c-8.284 0-15 6.716-15 15s6.716 15 15 15h40c8.284 0 15-6.716 15-15s-6.716-15-15-15z"></path>
<path fill="#000" d="M175 402h-40c-8.284 0-15 6.716-15 15s6.716 15 15 15h40c8.284 0 15-6.716 15-15s-6.716-15-15-15z"></path>
<path fill="#000" d="M889 222h-40c-8.284 0-15 6.716-15 15s6.716 15 15 15h40c8.284 0 15-6.716 15-15s-6.716-15-15-15z"></path>
<path fill="#000" d="M889 282h-40c-8.284 0-15 6.716-15 15s6.716 15 15 15h40c8.284 0 15-6.716 15-15s-6.716-15-15-15z"></path>
<path fill="#000" d="M889 342h-40c-8.284 0-15 6.716-15 15s6.716 15 15 15h40c8.284 0 15-6.716 15-15s-6.716-15-15-15z"></path>
<path fill="#000" d="M889 402h-40c-8.284 0-15 6.716-15 15s6.716 15 15 15h40c8.284 0 15-6.716 15-15s-6.716-15-15-15z"></path>
<path fill="#000" d="M602 672c-8.284 0-15 6.716-15 15v40c0 8.284 6.716 15 15 15s15-6.716 15-15v-40c0-8.284-6.716-15-15-15z"></path>
<path fill="#000" d="M542 672c-8.284 0-15 6.716-15 15v40c0 8.284 6.716 15 15 15s15-6.716 15-15v-40c0-8.284-6.716-15-15-15z"></path>
<path fill="#000" d="M482 672c-8.284 0-15 6.716-15 15v40c0 8.284 6.716 15 15 15s15-6.716 15-15v-40c0-8.284-6.716-15-15-15z"></path>
<path fill="#000" d="M422 672c-8.284 0-15 6.716-15 15v40c0 8.284 6.716 15 15 15s15-6.716 15-15v-40c0-8.284-6.716-15-15-15z"></path>
</svg>
