<!-- Generated by IcoMoon.io -->
<svg version="1.1" xmlns="http://www.w3.org/2000/svg" width="1024" height="1024" viewBox="0 0 1024 1024">
<title></title>
<g id="icomoon-ignore">
</g>
<path fill="#000" d="M787.405 97.495l-431.828 43.166-215.209 425.391 216.841 381.374 430.975-42.358 216.025-426.241-216.841-381.332zM623.207 362.669c0 71.757-26.415 139.821-69.078 191.86-42.812 52.227-102.058 88.33-167.389 95.799-6.307 0.712-12.502 1.217-18.623 1.374 10.796 22.299 24.93 42.017 41.736 58.372 34.019 33.134 78.983 52.679 129.066 52.679 7.494 0 15.025-0.418 22.556-1.289 60.433-6.949 115.338-40.515 155.22-89.198l0.037 0.121c39.994-48.777 64.776-112.702 64.776-180.115h0.039v-0.635c-0.148-62.616-21.629-117.13-56.798-155.937-30.050-33.173-70.19-54.895-115.599-60.276 9.052 26.552 13.986 55.678 14.060 86.7v0.594h0.039zM360.178 633.244c0.631 0 1.262 0 1.929 0 7.494 0 15.025-0.422 22.556-1.284 60.434-6.944 115.339-40.533 155.221-89.209 39.992-48.795 64.774-112.716 64.774-180.113h0.037v-0.644c-0.074-31.707-5.6-61.33-15.654-87.898-0.742 0-1.484 0-2.226 0v-0.121h-0.446c-64.737 0.175-124.911 31.514-169.059 80.593-44.704 49.664-72.899 117.452-72.899 189.484 0 10.472 0.594 20.667 1.706 30.504 2.374 20.719 7.16 40.403 14.060 58.618zM346.748 964.827l-134.26-75.834c-1.521-0.851-2.708-2.081-3.487-3.478v0l-207.788-366.208c-1.673-2.922-1.561-6.427 0-9.166l204.264-406.946c1.484-2.905 4.304-4.728 7.345-5.034v0l413.91-40.876c0.742-0.121 1.447-0.121 2.152 0.121l159.301 21.526 2.633-0.262c0.52-0.121 1.076-0.155 1.669-0.155 3.71 0 6.902 2.195 8.385 5.338l221.775 390.062c1.595 2.619 1.855 5.997 0.371 9.002l-220.589 435.173c-1.373 2.749-4.082 4.726-7.345 5.071l-441.995 43.514c-0.333 0.121-0.705 0.121-1.038 0.121h-0.672c-1.706-0.172-3.265-0.747-4.6-1.629l-0.075-0.121zM708.979 86.781l-81.58-11.004-407.751 40.267-199.999 398.443 204.156 359.708 103.802 58.618-205.639-361.606c-1.596-2.637-1.855-5.996-0.371-8.973l219.736-434.347c1.373-2.749 4.080-4.699 7.345-5.031v-0.121zM800.020 492.22c0 71.757-26.415 139.83-69.078 191.849-42.811 52.228-102.058 88.342-167.388 95.815-8.384 0.971-16.62 1.462-24.67 1.462-55.055 0-104.545-21.519-141.977-57.983-37.21-36.303-62.437-87.287-69.226-146.639-1.225-10.673-1.855-21.545-1.855-32.602 0-76.75 30.050-148.925 77.684-201.872 47.487-52.81 112.52-86.527 182.822-86.666h0.447v-0.121c59.877 0 113.225 25.326 151.622 67.702 38.137 42.056 61.435 100.938 61.584 168.341v0.634z"></path>
</svg>
