<!-- Generated by IcoMoon.io -->
<svg version="1.1" xmlns="http://www.w3.org/2000/svg" width="1024" height="1024" viewBox="0 0 1024 1024">
<title></title>
<g id="icomoon-ignore">
</g>
<path fill="#557198" d="M148.949 82.754c23.906-47.207 74.453-82.447 128.365-80.791 76.293-0.105 152.613-0.316 228.906-0.421 12.255-0.342 24.563 0.737 36.739-0.815 10.494 1.815 20.986-1.052 31.506-0.499 64.853 0.342 129.707-0.894 194.533 0.316 23.852 1.526 47.628 10.834 64.275 28.377 19.33 21.513 27.693 51.362 26.509 79.897 0.264 11.335-8.942 21.801-19.988 23.721-11.913 1.92-23.959 3.287-35.82 5.628-69.587 9.81-138.963 21.328-208.604 30.639l-1.63 1.131c-28.429 3.025-56.622 8.284-84.998 11.861-13.334 2.103-27.64 3.367-38.897 11.597-12.203 8.258-17.752 22.538-22.88 35.715 9.178 0.763 18.384 0.632 27.588 0.552 126.235 0 252.47 0 378.732 0 17.488 0.264 35.373-1.578 52.362 3.814 24.168 4.128 45.944 19.461 59.384 39.764 11.835 15.202 14.385 35.057 17.568 53.493 0.815-0.29 2.419-0.841 3.208-1.105 0.737 32.453 0.052 64.933 0.421 97.412-0.894-0.237-2.709-0.684-3.629-0.894-1.079 14.044-6.706 28.087-18.804 36.135-7.312 6.863-17.647 6.97-26.509 10.309-8.363 23.512-15.437 47.495-23.669 71.060-5.839 12.624-17.305 23.432-31.295 25.957-6.97 1.63-13.99 3.524-21.171 3.393-28.113-0.131-56.2 0.052-84.289-0.079-19.567-0.578-39.579-9.625-47.944-28.272-9.099-23.643-17.068-47.759-25.642-71.613-85.893-0.026-171.758 0-257.651 0 0.157 126.841-0.368 253.706 0.264 380.573 16.331 6.233 30.297 16.963 44.182 27.298 12.177 9.967 22.039 22.723 29.166 36.713 9.441 26.561 11.677 56.569 2.262 83.447-8.495 19.119-30.033 26.72-49.6 26.904-123.605-0.079-247.211-0.079-370.816 0-16.963 0.316-36.003-1.894-48.626-14.439-13.412-13.308-14.886-33.61-14.57-51.44-0.868-14.648 3.182-28.902 7.284-42.788 6.259-13.728 15.858-25.905 26.982-36.029 17.515-14.018 36.266-27.115 57.911-33.847-0.131-183.305-0.079-366.634-0.026-549.964-1.131-47.364-1.157-94.807-0.421-142.198 1.92-24.458 7.364-48.838 19.33-70.508zM274.631 49.802c-40.106 0.473-74.821 31.138-88.602 67.483-9.572 22.222-7.706 46.787-7.785 70.402 0.183 15.202-0.237 30.454 0.552 45.655 72.664 0.026 145.328 0 217.993 0.026 6.286-31.138 19.962-63.275 47.68-81.053 22.302-16.2 50.731-16.806 76.898-21.119 69.246-10.045 138.464-20.197 207.604-30.875 27.115-3.603 54.044-8.415 81.159-11.887-2.604-11.414-7.312-23.011-16.752-30.48-9.862-7.495-22.643-9.126-34.688-8.862-161.344 0.157-322.689 0.447-484.059 0.71zM445.443 278.866c0.394 47.576 0.079 95.202 0.157 142.804 163.554-0.052 327.080 0.105 490.608-0.079-0.157-28.139 0.026-56.254-0.079-84.367-0.052-13.859-2.814-28.324-11.283-39.632-10.073-12.966-26.404-20.96-42.868-20.592-138.438 0.052-276.902 0.052-415.34 0-7.075 0.183-14.491-0.972-21.197 1.868zM177.352 279.655c0.026 184.909-0.052 369.843 0.052 554.751 37.424-5.68 75.425-4.655 113.165-5.128 35.951 0.815 72.322-0.316 107.694 7.232-0.026-185.619 0-371.237 0-556.856-73.638 0-147.274 0-220.912 0zM753.089 469.034c6.233 17.515 12.36 35.057 18.619 52.571 32.98-0.131 65.931 0.29 98.885-0.211 5.366-17.541 11.388-34.898 17.015-52.336-44.84-0.052-89.679-0.052-134.519-0.026zM145.741 889.766c-20.697 7.837-41.026 19.803-53.861 38.291-10.414 14.070-5.47 32.348-6.575 48.522 131.494 0 262.99 0 394.485 0-0.316-11.492 0.684-23.064-0.473-34.504-3.472-14.964-15.202-26.378-27.272-35.057-29.691-22.091-67.72-27.298-103.697-29.139-34.215-1.105-68.457-1.815-102.697-0.737-33.557 0.368-67.878 1.604-99.909 12.624z"></path>
<path fill="#557198" d="M820.362 644.080c15.49 0 32.032 6.022 41.238 19.173 26.694 37.186 52.597 75.216 73.006 116.294 6.732 13.859 13.018 28.061 16.937 42.999 4.577 19.408 11.309 39.318 6.628 59.41-4.444 19.541-7.574 40.106-18.698 57.227-8.757 12.861-17.568 26.036-29.85 35.846-13.833 10.73-28.482 21.433-45.839 25.43-13.859 3.208-27.693 7.6-42.053 7.679-12.676 0.052-24.879-3.603-37.108-6.417-23.959-4.891-44.603-19.855-61.592-36.844-12.754-15.28-25.273-31.742-30.454-51.335-5.549-22.275-12.992-45.629-6.181-68.509 8.389-45.102 32.611-84.919 56.963-123.027 13.229-20.644 27.562-40.58 42.157-60.304 8.31-10.993 21.644-15.753 34.846-17.621zM822.939 689.893c-26.088 35.556-51.152 72.112-71.297 111.402-8.548 17.331-16.832 35.214-19.962 54.439-4.945 41.184 20.014 84.683 59.225 99.305 28.061 11.098 61.618 5.628 84.971-13.36 20.751-16.357 33.742-41.632 36.082-67.851 2.367-22.459-6.495-44.025-15.437-64.118-19.935-42.526-46.129-81.816-73.585-119.819z"></path>
<path fill="#557198" d="M760.61 839.903c4.76-13.386 19.461-17.647 32.295-14.385 7.6 4.917 14.28 12.255 14.439 21.828 0.552 12.15 7.179 24.984 19.513 28.666 8.153 2.419 15.49 7.811 18.909 15.806 2.761 9.099 1.105 19.908-6.469 26.247-6.364 7.048-16.858 5.786-25.326 4.523-34.688-9.389-59.62-47.127-53.36-82.685z"></path>
</svg>
