<!-- Generated by IcoMoon.io -->
<svg version="1.1" xmlns="http://www.w3.org/2000/svg" width="1024" height="1024" viewBox="0 0 1024 1024">
<title></title>
<g id="icomoon-ignore">
</g>
<path fill="#000" d="M512 497c-78.85 0-143 64.15-143 143s64.15 143 143 143 143-64.15 143-143-64.15-143-143-143zM512 655c-8.272 0-15-6.728-15-15s6.728-15 15-15 15 6.728 15 15-6.728 15-15 15zM601.754 708.542l-9.852-9.852c-5.858-5.858-15.356-5.858-21.212 0-5.858 5.858-5.858 15.356 0 21.212l9.852 9.852c-15.268 11.688-33.588 19.56-53.542 22.22v-69.554c17.458-6.192 30-22.864 30-42.42 0-24.814-20.186-45-45-45s-45 20.186-45 45c0 19.556 12.542 36.228 30 42.42v69.554c-19.954-2.66-38.274-10.532-53.542-22.22l9.852-9.852c5.858-5.858 5.858-15.356 0-21.212-5.858-5.858-15.356-5.858-21.212 0l-9.852 9.852c-11.688-15.268-19.56-33.588-22.22-53.542h13.974c8.284 0 15-6.716 15-15s-6.716-15-15-15h-13.974c2.66-19.954 10.532-38.274 22.22-53.542l9.852 9.852c2.928 2.928 6.768 4.394 10.606 4.394s7.678-1.464 10.606-4.394c5.858-5.858 5.858-15.356 0-21.212l-9.852-9.852c15.268-11.688 33.588-19.56 53.542-22.22v13.974c0 8.284 6.716 15 15 15s15-6.716 15-15v-13.974c19.954 2.66 38.274 10.532 53.542 22.22l-9.852 9.852c-5.858 5.858-5.858 15.356 0 21.212 2.928 2.928 6.768 4.394 10.606 4.394s7.678-1.464 10.606-4.394l9.852-9.852c11.688 15.268 19.56 33.588 22.22 53.542h-13.974c-8.284 0-15 6.716-15 15s6.716 15 15 15h13.974c-2.66 19.954-10.532 38.274-22.22 53.542z"></path>
<path fill="#000" d="M1014.008 379.862l-158.23-56.058c-66.702-121.362-195.788-203.804-343.778-203.804s-277.076 82.442-343.778 203.804l-158.23 56.058c-5.99 2.12-9.992 7.784-9.992 14.138v238c0 6.338 3.986 11.994 9.956 14.126l159.982 57.136c67.182 119.678 195.324 200.738 342.062 200.738s274.88-81.060 342.062-200.738l159.982-57.136c5.97-2.132 9.956-7.788 9.956-14.126v-238c0-6.354-4.002-12.018-9.992-14.138zM30 621.43v-216.83l119.79-42.44c-19.178 46.188-29.79 96.794-29.79 149.84 0 54.108 11.022 105.69 30.934 152.62l-120.934-43.19zM512 874c-199.608 0-362-162.392-362-362s162.392-362 362-362 362 162.392 362 362-162.392 362-362 362zM994 621.43l-120.934 43.19c19.912-46.93 30.934-98.512 30.934-152.62 0-53.046-10.612-103.652-29.79-149.84l119.79 42.44v216.83z"></path>
<path fill="#000" d="M692 317h-360c-8.284 0-15 6.716-15 15v120c0 8.284 6.716 15 15 15h360c8.284 0 15-6.716 15-15v-120c0-8.284-6.716-15-15-15zM377 437h-30v-90h30v90zM437 437h-30v-90h30v90zM497 437h-30v-90h30v90zM557 437h-30v-90h30v90zM617 437h-30v-90h30v90zM677 437h-30v-90h30v90z"></path>
<path fill="#000" d="M572 257h-120c-8.284 0-15 6.716-15 15s6.716 15 15 15h120c8.284 0 15-6.716 15-15s-6.716-15-15-15z"></path>
<path fill="#000" d="M512 180c-183.066 0-332 148.934-332 332 0 77.084 27.018 152.196 76.080 211.498 5.282 6.384 14.738 7.276 21.12 1.996 6.382-5.282 7.276-14.736 1.996-21.12-44.622-53.934-69.196-122.254-69.196-192.374 0-166.524 135.476-302 302-302s302 135.476 302 302-135.476 302-302 302c-70.12 0-138.44-24.574-192.376-69.194-6.384-5.28-15.838-4.384-21.12 1.996-5.28 6.382-4.386 15.838 1.996 21.12 59.304 49.060 134.416 76.078 211.5 76.078 183.066 0 332-148.934 332-332s-148.934-332-332-332z"></path>
</svg>
