<!-- Generated by IcoMoon.io -->
<svg version="1.1" xmlns="http://www.w3.org/2000/svg" width="1024" height="1024" viewBox="0 0 1024 1024">
<title></title>
<g id="icomoon-ignore">
</g>
<path fill="#000" d="M290.133 51.2h68.267v34.133h-68.267v-34.133z"></path>
<path fill="#000" d="M392.533 51.2h34.133v34.133h-34.133v-34.133z"></path>
<path fill="#000" d="M1006.932 614.399h-204.8c0-28.277-22.923-51.2-51.2-51.2s-51.2 22.923-51.2 51.2h-17.067v-443.732h102.4c9.425 0 17.067-7.642 17.067-17.067v-136.533c0-9.425-7.642-17.067-17.067-17.067h-546.132c-9.425 0-17.067 7.642-17.067 17.067v136.533c0 9.425 7.642 17.067 17.067 17.067h102.4v85.333h-17.067c0-28.277-22.923-51.2-51.2-51.2s-51.2 22.923-51.2 51.2h-204.8c-9.425 0-17.067 7.642-17.067 17.067v102.4c0 9.425 7.642 17.067 17.067 17.067h204.8c0 28.277 22.923 51.2 51.2 51.2s51.2-22.923 51.2-51.2h17.067v460.799c0 94.257 76.41 170.667 170.667 170.667s170.667-76.41 170.667-170.667v-102.4h17.067c0 28.277 22.923 51.2 51.2 51.2s51.2-22.923 51.2-51.2h204.8c9.425 0 17.067-7.642 17.067-17.067v-102.4c0-9.425-7.642-17.067-17.067-17.067zM221.868 358.4h-187.733v-68.267h187.733v68.267zM290.133 392.533c0 9.425-7.642 17.067-17.067 17.067s-17.067-7.642-17.067-17.067v-136.533c0-9.425 7.642-17.067 17.067-17.067s17.067 7.642 17.067 17.067v136.533zM341.333 358.4h-17.067v-68.267h17.067v68.267zM648.533 853.332c0 75.405-61.129 136.533-136.533 136.533s-136.533-61.129-136.533-136.533v-682.666h273.066v682.666zM256.001 136.533v-102.4h511.999v102.4h-511.999zM699.733 716.799h-17.067v-68.267h17.067v68.267zM768 750.932c0 9.425-7.642 17.067-17.067 17.067s-17.067-7.642-17.067-17.067v-136.533c0-9.425 7.642-17.067 17.067-17.067s17.067 7.642 17.067 17.067v136.533zM989.866 716.799h-187.733v-68.267h187.733v68.267z"></path>
<path fill="#000" d="M512 597.332c47.104-0.055 85.278-38.229 85.333-85.333 0-42.871-61.303-103.134-73.591-114.79-6.583-6.242-16.9-6.242-23.484 0-12.288 11.657-73.591 71.919-73.591 114.79 0.055 47.104 38.229 85.278 85.333 85.333zM512 433.698v0c24.183 25.276 51.2 60.365 51.2 78.302 0 28.277-22.923 51.2-51.2 51.2s-51.2-22.923-51.2-51.2c0-17.903 27.017-52.907 51.2-78.302z"></path>
<path fill="#000" d="M534.067 643.532l22.067 22.067h-112.401v34.133h112.401l-22.067 22.067 24.132 24.132 51.2-51.2-0.119-0.119c6.662-6.317 6.944-16.836 0.627-23.501-0.171-0.181-0.346-0.356-0.525-0.529l-51.183-51.183-24.132 24.132z"></path>
</svg>
