<!-- Generated by IcoMoon.io -->
<svg version="1.1" xmlns="http://www.w3.org/2000/svg" width="1024" height="1024" viewBox="0 0 1024 1024">
<title></title>
<g id="icomoon-ignore">
</g>
<path fill="#000" d="M511.98 0c-282.304 0-511.98 229.683-511.98 512s229.676 512 511.98 512c282.319 0 512.020-229.683 512.020-512s-229.701-512-512.020-512zM511.98 956.851c-245.284 0-444.831-199.562-444.831-444.851 0-245.292 199.544-444.849 444.831-444.849 245.304 0 444.867 199.56 444.867 444.849 0.003 245.289-199.562 444.851-444.867 444.851z"></path>
<path fill="#000" d="M679.611 344.394c-13.115-13.115-34.36-13.115-47.475 0l-120.136 120.128-120.136-120.128c-13.115-13.115-34.365-13.115-47.48 0-13.115 13.107-13.115 34.371 0 47.478l120.12 120.128-120.136 120.131c-13.115 13.105-13.115 34.36 0 47.48 6.556 6.559 15.15 9.836 23.739 9.836s17.18-3.277 23.734-9.836l120.159-120.141 120.136 120.146c6.559 6.559 15.145 9.836 23.734 9.836 8.586 0 17.18-3.274 23.736-9.836 13.115-13.105 13.115-34.371 0-47.475l-120.131-120.141 120.136-120.128c13.115-13.107 13.115-34.363 0-47.478z"></path>
</svg>
