<!-- Generated by IcoMoon.io -->
<svg version="1.1" xmlns="http://www.w3.org/2000/svg" width="1024" height="1024" viewBox="0 0 1024 1024">
<title></title>
<g id="icomoon-ignore">
</g>
<path fill="#000" d="M1023.218 395.203c-0.002-1.54-0.346-3.866-0.944-5.206-1.574-5.708-5.072-10.922-10.308-14.562l-146.584-101.896v-109.232c0-14.48-11.744-26.224-26.224-26.224h-168.638l-143.486-99.756c-8.968-6.242-20.874-6.268-29.87-0.052l-144.412 99.808h-167.9c-14.484 0-26.224 11.744-26.224 26.224v107.946l-147.296 101.802c-7.246 5.008-11.166 13.014-11.29 21.2-0.008 0.154-0.042 0.3-0.042 0.46l0.782 568.47c0.010 6.954 2.782 13.62 7.704 18.532 4.916 4.902 11.576 7.654 18.52 7.654 0.014 0 0.024 0 0.036 0l970.77-1.334c14.48-0.020 26.208-11.778 26.188-26.26l-0.782-567.574zM865.38 337.417l83.796 58.236-83.796 58.256v-116.492zM512.030 91.769l66.62 46.312h-133.624l67.004-46.312zM211.076 190.531h601.856v299.842l-202.072 140.484-82.388-63.908c-0.128-0.1-0.238-0.162-0.362-0.252-9.208-6.908-22.232-7.162-31.788 0.252l-82.986 64.37-202.26-139.786v-301.002zM158.628 336.007v119.28l-86.292-59.638 86.292-59.642zM52.516 445.735l317.338 219.31-316.698 245.648-0.64-464.958zM103.75 937.819l408.648-316.968 407.182 315.846-815.83 1.122zM654.288 664.543l316.552-220.072 0.64 466.118-317.192-246.046z"></path>
<path fill="#000" d="M689.54 295.427h-355.072c-14.48 0-26.224 11.744-26.224 26.224s11.744 26.224 26.224 26.224h355.072c14.484 0 26.224-11.744 26.224-26.224s-11.74-26.224-26.224-26.224z"></path>
<path fill="#000" d="M689.54 431.791h-355.072c-14.48 0-26.224 11.744-26.224 26.224s11.744 26.224 26.224 26.224h355.072c14.484 0 26.224-11.744 26.224-26.224s-11.74-26.224-26.224-26.224z"></path>
</svg>
