<!-- Generated by IcoMoon.io -->
<svg version="1.1" xmlns="http://www.w3.org/2000/svg" width="1024" height="1024" viewBox="0 0 1024 1024">
<title></title>
<g id="icomoon-ignore">
</g>
<path fill="#557198" d="M369.687 3.927c26.282-4.512 52.992-3.977 79.553-3.828 37.68-0.385 75.211 7.998 109.984 22.283 29.726 12.789 58.575 31.672 75.404 60.071 8.319 14.478 13.216 31.458 11.784 48.223-1.925 14.456-0.769 29.042-1.005 43.562 23.289-5.304 47.303-3.998 71.020-4.149 39.114-0.835 78.227 7.378 114.432 22.006 33.575 14.35 66.828 36.696 81.798 71.298 7.015 15.333 7.121 32.399 5.325 48.843-0.128 177.518-0.021 355.037-0.043 532.534-0.149 12.19 1.134 24.914-3.722 36.441-9.987 26.475-31.521 46.812-55.431 61.054-35.906 21.449-77.435 31.672-118.73 35.906-41.166 2.438-83.039 1.368-122.986-9.88-33.061-8.576-64.797-23.374-90.759-45.807-7.72 25.278-27.223 45.272-48.865 59.558-22.261 14.884-47.539 24.978-73.501 31.287l-1.326 1.090c-2.395 0.236-4.812 0.514-7.206 0.791l-1.326 1.090c-50.576 10.029-103.29 10.671-153.738-0.492-35.349-8.191-70.314-21.855-98.351-45.465-16.617-13.793-28.634-32.356-35.692-52.671-1.668-9.944-1.198-20.081-1.241-30.132 0-183.143 0-366.307-0.021-549.45 0.236-7.121-0.47-14.584 2.502-21.257 10.928-33.425 39.156-57.655 69.737-72.966 14.136-7.057 28.806-13.301 44.203-16.98 1.069-38.515-0.193-77.072 0.642-115.586 3.592-25.021 20.294-46.107 39.349-61.761 30.773-24.144 68.583-38.151 106.862-44.781l1.347-0.835zM382.861 38.101c-37.338 6.266-75.34 18.242-104.338 43.562-11.505 11.142-22.647 25.448-21.685 42.407-1.069 20.723 13.857 37.83 29.276 49.742 37.017 27.415 83.616 37.724 128.804 40.932 47.176 2.139 95.72-4.085 138.769-24.4 21-10.222 41.808-24.379 52.544-45.829 4.876-8.939 4.342-19.247 4.085-29.063-3.314-10.18-8.298-19.91-15.697-27.736-18.391-19.525-43.284-31.5-68.453-39.798-46.149-14.542-95.613-17.023-143.302-9.816zM257.158 195.453c-0.535 7.506-0.642 15.034-0.514 22.54 9.345-0.769 18.584-2.395 27.908-3.507-10.222-4.555-19.396-11.27-27.394-19.032zM681.976 205.033c-34.837 3.123-69.887 10.543-101.194 26.646-18.433 9.816-36.227 22.797-46.428 41.466-5.646 10.093-6.137 22.198-3.828 33.297 5.902 20.037 22.454 34.623 39.605 45.357 36.312 22.006 79.083 31.094 121.105 33.040 18.968 1.989 38.045-0.449 56.927-2.245 38.109-5.154 76.815-16.317 107.588-40.225 14.157-11.633 28.101-27.715 27.287-47.197 0.92-16.766-9.452-31.693-21.107-42.727-19.782-17.9-44.76-28.934-70.079-36.526-19.717-5.389-39.904-9.687-60.413-10.158l-1.304-0.962c-16.060-0.514-32.142-0.898-48.159 0.236zM467.418 249.45c10.628 5.838 20.872 12.703 29.384 21.407 3.913-10.201 8.618-20.209 15.569-28.742-14.884 3.144-29.939 5.132-44.951 7.335zM283.955 250.584c-29.575 2.93-59.002 10.008-85.968 22.669-18.242 8.81-35.821 20.402-47.775 37.082-8.897 11.527-11.911 26.881-8.169 40.953 6.201 20.957 23.887 35.778 42.022 46.555 40.59 23.374 88.235 32.014 134.641 31.629 37.488 0.236 75.298-6.052 110.027-20.423 22.797-10.008 45.829-23.417 59.044-45.315 10.414-16.574 8.362-39.22-3.614-54.468-18.477-24.251-47.154-37.916-75.468-47.154-40.161-12.51-82.975-15.761-124.74-11.527zM529.286 421.43c0.021 144.008-0.085 288.016 0.043 432.045-0.684 18.178 11.249 33.96 24.422 45.251 27.759 23.16 63.215 34.772 98.372 40.932 26.774 4.319 54.148 6.137 81.157 3.229 40.953-3.272 82.568-13.793 116.763-37.338 17.621-12.361 34.623-31.243 33.104-54.233-0.043-161.8 0.278-323.601-0.149-485.379-28.742 24.978-65.267 38.642-101.879 47.24-65.781 13.088-135.882 9.987-198.476-15.248-19.075-8.126-37.809-18.091-53.035-32.377-0.727 18.626-0.149 37.253-0.321 55.879zM140.716 410.716c-0.085 165.372-0.128 330.743 0.021 496.094 3.956 14.307 12.81 26.731 24.058 36.248 19.61 16.509 43.562 27.031 67.984 34.195 58.766 16.167 122.28 15.461 180.32-3.401 26.903-9.538 54.447-22.86 71.619-46.534 6.137-8.383 10.051-18.52 9.751-28.998 0-162.634 0.021-325.29-0.021-487.924-26.368 22.604-59.066 36.441-92.49 44.845-36.42 8.897-74.227 11.784-111.588 9.046-53.228-4.277-107.824-18.968-149.654-53.57z"></path>
<path fill="#557198" d="M816.403 453.508c10.222-2.866 22.006 6.137 21.32 16.916 0.064 110.583 0.107 221.187-0.021 331.769 0.642 13.28-15.782 20.893-26.518 14.435-5.838-3.336-8.897-10.116-8.34-16.68 0.064-109.855-0.085-219.733 0.064-329.588-0.363-7.977 5.881-15.119 13.494-16.852z"></path>
<path fill="#557198" d="M427.77 497.882c10.65-2.63 21.599 6.501 21.685 17.301 0.856 43.583-0.535 87.209 0.128 130.771-1.432 20.658 1.262 41.359-0.363 62.038 1.005 44.074 0.021 88.214 0.406 132.31 0.835 9.26-3.165 20.252-13.109 22.582-11.312 3.656-23.545-6.352-22.518-18.049 0.021-109.77-0.064-219.561 0.021-329.353-0.449-8.234 5.902-15.761 13.751-17.6z"></path>
</svg>
