<!-- Generated by IcoMoon.io -->
<svg version="1.1" xmlns="http://www.w3.org/2000/svg" width="1024" height="1024" viewBox="0 0 1024 1024">
<title></title>
<g id="icomoon-ignore">
</g>
<path fill="#000" d="M955.734 702.873v-481.007c0-28.277-22.923-51.2-51.2-51.2h-17.067v-68.267h-34.133v-102.4h-238.933v102.4h-34.133v68.267h-17.067c-28.277 0-51.2 22.923-51.2 51.2v51.2h-71.407c-7.206-20.384-26.441-34.044-48.060-34.133-21.632 0.075-40.883 13.739-48.094 34.133h-310.306v307.2h310.34c9.248 26.543 38.261 40.563 64.802 31.317 14.671-5.111 26.206-16.644 31.317-31.317h71.407v122.556c-7.13 2.426-13.598 6.473-18.893 11.827-9.818 9.508-15.324 22.615-15.241 36.284 0.090 21.619 13.749 40.853 34.133 48.060v3.14c0 122.534 99.332 221.867 221.867 221.867s221.867-99.332 221.867-221.867v-3.14c20.384-7.206 34.044-26.441 34.133-48.060-0.090-21.619-13.749-40.853-34.133-48.060zM341.334 546.132h-273.067v-238.933h273.067v238.933zM409.601 563.199c0 9.425-7.642 17.067-17.067 17.067s-17.067-7.642-17.067-17.067v-273.067c-0.009-4.602 1.888-9.001 5.239-12.151 3.104-3.189 7.377-4.966 11.827-4.915 9.425 0 17.067 7.642 17.067 17.067v273.067zM648.534 34.132h170.667v68.267h-170.667v-68.267zM614.401 136.532h238.933v34.133h-238.933v-34.133zM546.134 221.866c0-9.425 7.642-17.067 17.067-17.067h341.333c9.425 0 17.067 7.642 17.067 17.067v477.867h-375.467v-477.867zM443.734 546.132v-238.933h68.267v238.933h-68.267zM733.868 989.866c-103.631-0.122-187.612-84.102-187.733-187.733h375.467c-0.122 103.631-84.102 187.612-187.733 187.733zM938.668 767.999h-409.6c-9.425 0-17.067-7.642-17.067-17.067-0.009-4.602 1.888-9.001 5.239-12.151 3.104-3.189 7.377-4.966 11.827-4.915h409.6c9.425 0 17.067 7.642 17.067 17.067s-7.642 17.067-17.067 17.067z"></path>
</svg>
