<?xml version="1.0" encoding="UTF-8" ?>
<!DOCTYPE svg PUBLIC "-//W3C//DTD SVG 1.1//EN" "http://www.w3.org/Graphics/SVG/1.1/DTD/svg11.dtd">
<svg width="600pt" height="600pt" viewBox="0 0 600 600" version="1.1" xmlns="http://www.w3.org/2000/svg">
<g id="#557198ff">
<path fill="#557198" opacity="1.00" d=" M 232.80 61.80 C 245.09 59.69 257.58 59.94 270.00 60.01 C 287.62 59.83 305.17 63.75 321.43 70.43 C 335.33 76.41 348.82 85.24 356.69 98.52 C 360.58 105.29 362.87 113.23 362.20 121.07 C 361.30 127.83 361.84 134.65 361.73 141.44 C 372.62 138.96 383.85 139.57 394.94 139.50 C 413.23 139.11 431.52 142.95 448.45 149.79 C 464.15 156.50 479.70 166.95 486.70 183.13 C 489.98 190.30 490.03 198.28 489.19 205.97 C 489.13 288.98 489.18 371.99 489.17 454.99 C 489.10 460.69 489.70 466.64 487.43 472.03 C 482.76 484.41 472.69 493.92 461.51 500.58 C 444.72 510.61 425.30 515.39 405.99 517.37 C 386.74 518.51 367.16 518.01 348.48 512.75 C 333.02 508.74 318.18 501.82 306.04 491.33 C 302.43 503.15 293.31 512.50 283.19 519.18 C 272.78 526.14 260.96 530.86 248.82 533.81 L 248.20 534.32 C 247.08 534.43 245.95 534.56 244.83 534.69 L 244.21 535.20 C 220.56 539.89 195.91 540.19 172.32 534.97 C 155.79 531.14 139.44 524.75 126.33 513.71 C 118.56 507.26 112.94 498.58 109.64 489.08 C 108.86 484.43 109.08 479.69 109.06 474.99 C 109.06 389.35 109.06 303.70 109.05 218.06 C 109.16 214.73 108.83 211.24 110.22 208.12 C 115.33 192.49 128.53 181.16 142.83 174.00 C 149.44 170.70 156.30 167.78 163.50 166.06 C 164.00 148.05 163.41 130.02 163.80 112.01 C 165.48 100.31 173.29 90.45 182.20 83.13 C 196.59 71.84 214.27 65.29 232.17 62.19 L 232.80 61.80 M 238.96 77.78 C 221.50 80.71 203.73 86.31 190.17 98.15 C 184.79 103.36 179.58 110.05 180.03 117.98 C 179.53 127.67 186.51 135.67 193.72 141.24 C 211.03 154.06 232.82 158.88 253.95 160.38 C 276.01 161.38 298.71 158.47 318.84 148.97 C 328.66 144.19 338.39 137.57 343.41 127.54 C 345.69 123.36 345.44 118.54 345.32 113.95 C 343.77 109.19 341.44 104.64 337.98 100.98 C 329.38 91.85 317.74 86.25 305.97 82.37 C 284.39 75.57 261.26 74.41 238.96 77.78 M 180.18 151.36 C 179.93 154.87 179.88 158.39 179.94 161.90 C 184.31 161.54 188.63 160.78 192.99 160.26 C 188.21 158.13 183.92 154.99 180.18 151.36 M 378.83 155.84 C 362.54 157.30 346.15 160.77 331.51 168.30 C 322.89 172.89 314.57 178.96 309.80 187.69 C 307.16 192.41 306.93 198.07 308.01 203.26 C 310.77 212.63 318.51 219.45 326.53 224.47 C 343.51 234.76 363.51 239.01 383.16 239.92 C 392.03 240.85 400.95 239.71 409.78 238.87 C 427.60 236.46 445.70 231.24 460.09 220.06 C 466.71 214.62 473.23 207.10 472.85 197.99 C 473.28 190.15 468.43 183.17 462.98 178.01 C 453.73 169.64 442.05 164.48 430.21 160.93 C 420.99 158.41 411.55 156.40 401.96 156.18 L 401.35 155.73 C 393.84 155.49 386.32 155.31 378.83 155.84 M 278.50 176.61 C 283.47 179.34 288.26 182.55 292.24 186.62 C 294.07 181.85 296.27 177.17 299.52 173.18 C 292.56 174.65 285.52 175.58 278.50 176.61 M 192.71 177.14 C 178.88 178.51 165.12 181.82 152.51 187.74 C 143.98 191.86 135.76 197.28 130.17 205.08 C 126.01 210.47 124.60 217.65 126.35 224.23 C 129.25 234.03 137.52 240.96 146.00 246.00 C 164.98 256.93 187.26 260.97 208.96 260.79 C 226.49 260.90 244.17 257.96 260.41 251.24 C 271.07 246.56 281.84 240.29 288.02 230.05 C 292.89 222.30 291.93 211.71 286.33 204.58 C 277.69 193.24 264.28 186.85 251.04 182.53 C 232.26 176.68 212.24 175.16 192.71 177.14 M 307.43 257.03 C 307.44 324.37 307.39 391.71 307.45 459.06 C 307.13 467.56 312.71 474.94 318.87 480.22 C 331.85 491.05 348.43 496.48 364.87 499.36 C 377.39 501.38 390.19 502.23 402.82 500.87 C 421.97 499.34 441.43 494.42 457.42 483.41 C 465.66 477.63 473.61 468.80 472.90 458.05 C 472.88 382.39 473.03 306.73 472.83 231.08 C 459.39 242.76 442.31 249.15 425.19 253.17 C 394.43 259.29 361.65 257.84 332.38 246.04 C 323.46 242.24 314.70 237.58 307.58 230.90 C 307.24 239.61 307.51 248.32 307.43 257.03 M 125.73 252.02 C 125.69 329.35 125.67 406.68 125.74 484.00 C 127.59 490.69 131.73 496.50 136.99 500.95 C 146.16 508.67 157.36 513.59 168.78 516.94 C 196.26 524.50 225.96 524.17 253.10 515.35 C 265.68 510.89 278.56 504.66 286.59 493.59 C 289.46 489.67 291.29 484.93 291.15 480.03 C 291.15 403.98 291.16 327.92 291.14 251.87 C 278.81 262.44 263.52 268.91 247.89 272.84 C 230.86 277.00 213.18 278.35 195.71 277.07 C 170.82 275.07 145.29 268.20 125.73 252.02 Z" />
<path fill="#557198" opacity="1.00" d=" M 441.69 272.03 C 446.47 270.69 451.98 274.90 451.66 279.94 C 451.69 331.65 451.71 383.37 451.65 435.08 C 451.95 441.29 444.27 444.85 439.25 441.83 C 436.52 440.27 435.09 437.10 435.35 434.03 C 435.38 382.66 435.31 331.28 435.38 279.91 C 435.21 276.18 438.13 272.84 441.69 272.03 Z" />
<path fill="#557198" opacity="1.00" d=" M 259.96 292.78 C 264.94 291.55 270.06 295.82 270.10 300.87 C 270.50 321.25 269.85 341.65 270.16 362.02 C 269.49 371.68 270.75 381.36 269.99 391.03 C 270.46 411.64 270.00 432.28 270.18 452.90 C 270.57 457.23 268.70 462.37 264.05 463.46 C 258.76 465.17 253.04 460.49 253.52 455.02 C 253.53 403.69 253.49 352.35 253.53 301.01 C 253.32 297.16 256.29 293.64 259.96 292.78 Z" />
</g>
</svg>
