<!-- Generated by IcoMoon.io -->
<svg version="1.1" xmlns="http://www.w3.org/2000/svg" width="1024" height="1024" viewBox="0 0 1024 1024">
<title></title>
<g id="icomoon-ignore">
</g>
<path fill="#000" d="M1021.812 776.962c-8.598-28.208-24.057-53.842-44.997-74.605-33.351-33.536-78.734-52.333-126.029-52.204-24.171 0.012-48.091 4.916-70.319 14.414l-175.311-175.311 232.774-231.021 55.126-1.558c6.669-0.202 12.768-3.806 16.168-9.545l78.89-132.652c4.585-7.655 3.38-17.448-2.922-23.764l-68.177-68.177c-6.316-6.301-16.109-7.507-23.764-2.922l-132.652 78.89c-5.739 3.399-9.343 9.498-9.545 16.168l-1.558 54.931-232.19 231.8-159.338-159.338c16.73-97.003-48.344-189.202-145.348-205.932-44.945-7.753-91.155 2.021-129.112 27.31-8.912 6.026-11.252 18.135-5.225 27.047 1.695 2.505 3.949 4.582 6.589 6.068l88.435 49.282c19.479 11.103 23.375 44.217 7.597 72.267s-45.97 42.464-65.644 31.556l-82.007-44.412c-9.425-5.186-21.271-1.748-26.455 7.677-1.787 3.246-2.61 6.935-2.372 10.633 6.163 98.242 90.801 172.886 189.044 166.723 20.297-1.273 40.227-6.012 58.924-14.008l144.924 144.924-62.722 62.722-14.22-14.025c-15.741-15.065-40.553-15.065-56.294 0l-19.479 19.479c-14.841 14.449-15.78 37.982-2.143 53.567l-230.437 230.047c-15.544 14.875-16.087 39.538-1.213 55.082 0.394 0.414 0.799 0.818 1.213 1.213l65.839 65.839c14.875 15.544 39.538 16.087 55.082 1.213 0.414-0.394 0.818-0.799 1.213-1.213l230.632-230.437c15.586 13.638 39.119 12.698 53.567-2.143l19.479-19.479c15.544-14.875 16.087-39.538 1.213-55.082-0.394-0.414-0.799-0.818-1.213-1.213l-14.22-14.22 62.333-63.696 188.947 188.947c-16.323 97.074 49.136 188.998 146.21 205.321 57.497 9.669 116.088-9.396 156.884-51.047 7.154-8.035 6.443-20.346-1.592-27.502-2.075-1.848-4.522-3.231-7.173-4.054l-109.667-29.413c-10.748-3.455-19.255-11.746-22.985-22.401-5.698-14.69-6.382-30.85-1.948-45.97 8.181-30.582 34.088-52.399 55.905-46.555l108.498 29.219c1.743 0.253 3.516 0.253 5.259 0 10.757 0.131 19.584-8.483 19.713-19.24 0.037-3.199-0.711-6.36-2.184-9.199zM782.025 191.228c3.506-3.531 5.527-8.271 5.649-13.246l1.558-52.009 110.446-65.644 46.75 46.75-64.281 110.251-52.983 1.948c-4.974 0.122-9.715 2.143-13.246 5.649l-237.644 237.449-33.504-33.504 237.254-237.644zM106.493 967.467l-66.813-66.423 231.606-231.021 33.504 33.504 31.946 33.114-230.242 230.826zM391.471 733.719l-25.712-25.907-9.934-9.934-81.812-82.396 19.479-19.479 116.874 118.432-18.895 19.284zM395.172 644.894l-33.504-33.504 62.722-62.722 33.504 33.504-62.722 62.722zM900.068 738.589c-5.78-1.553-11.741-2.34-17.726-2.337-42.467 3.428-77.519 34.585-85.902 76.358-6.647 23.458-5.347 48.457 3.701 71.098 8.349 21.79 26.457 38.383 48.892 44.802l72.462 19.479c-66.078 39.374-151.564 17.728-190.938-48.347-18.493-31.033-24.203-68.035-15.929-103.2 1.483-6.54-0.504-13.385-5.259-18.115l-439.057-439.447c-6.233-5.856-15.556-6.961-22.985-2.727-20.115 10.614-42.513 16.165-65.255 16.168-58.605 0.051-110.953-36.64-130.899-91.746l44.412 24.738c10.353 5.797 22.028 8.817 33.893 8.766 36.065-2.077 68.323-23.136 84.734-55.32 26.491-47.334 16.168-103.628-22.79-125.445l-56.684-32.14c72.438-25.875 152.134 11.872 178.009 84.308 8.98 25.143 10.545 52.335 4.509 78.342-1.483 6.54 0.504 13.385 5.259 18.115l440.031 439.836c6.014 6.021 15.242 7.443 22.79 3.506 20.117-10.606 42.513-16.155 65.255-16.168 49.326-0.039 94.982 26.051 119.991 68.566l-70.514-19.089z"></path>
</svg>
