<!-- Generated by IcoMoon.io -->
<svg version="1.1" xmlns="http://www.w3.org/2000/svg" width="1024" height="1024" viewBox="0 0 1024 1024">
<title></title>
<g id="icomoon-ignore">
</g>
<path fill="#557198" d="M895.281 18.93c12.31-6.703 23.719-16.564 38.22-17.853 17.724-1.912 37.576-2.471 52.592 8.765 11.859 5.156 18.497 16.735 24.041 27.778 4.447 13.599 2.986 28.831-2.943 41.744-7.326 12.44-14.566 25.179-24.771 35.555-21.935 22.687-46.943 42.109-72.336 60.734-26.21 19.83-54.72 36.588-79.469 58.307-11.859 8.916-21.999 19.83-33.579 29.11 0.215 0.794 0.645 2.428 0.86 3.244 13.62 13.62 30.25 25.458 38.242 43.548 2.083 13.385 15.319 22.042 15.232 36.114 0.107 15.275-4.984 30.034-7.326 45.031-8.507 41.378-17.016 82.778-26.167 124.027-1.827 11.343-8.25 21.376-15.641 29.949-150.366 150.366-300.753 300.71-451.098 451.119-8.873 10.269-21.613 15.684-32.913 22.708-13.385 2.664-27.586 7.949-41.099 3.416-15.125 0.386-27.006-9.453-39.187-16.863-5.156-3.395-9.173-8.142-13.556-12.418-57.319-57.298-114.596-114.617-171.935-171.892-9.904-9.13-16.521-21.141-22.859-32.849-2.621-9.431-8.573-17.208-12.955-25.781-7.519-20.518-7.54-44.235 2.578-63.871 6.037-9.561 11-20.087 19.807-27.499 148.239-148.153 296.414-296.371 444.61-444.589 7.111-7.971 15.748-14.609 25.587-18.906 13.535-5.285 28.295-5.736 42.001-10.398 24.771-3.867 49.026-10.376 73.603-15.21 20.13-2.943 39.766-8.701 59.919-11.322 3.18 0.086 6.36 0.322 9.539 0.687 15.662 4.254 26.361 16.757 37.275 27.887 3.824-7.369 9.495-13.492 14.265-20.238 21.312-29.24 43.999-57.49 67.696-84.797 24.75-27.586 49.95-55.644 81.768-75.236zM944.2 37.644c-20.13 5.457-37.296 18.068-52.507 31.903-12.589 10.227-23.954 21.892-34.482 34.202-33.235 35.19-62.84 73.647-91.521 112.618-2.621 3.652-5.886 6.961-7.284 11.365 3.566 3.158 6.94 6.552 10.011 10.205 19.421-19.293 40.498-36.953 62.604-53.13 33.193-23.074 66.535-46.104 97.516-72.1 8.68-9.388 19.701-16.307 27.757-26.297 7.519-9.13 16.35-18.412 18.004-30.679 1.095-6.961-4.705-12.718-10.763-14.974-6.187-2.45-12.718-3.502-19.336-3.116zM648.195 216.733c-14.286 3.094-28.895 4.705-42.903 8.98-10.655 1.998-21.506 3.223-31.797 6.81-6.853 0.258-13.298 3.029-20.13 3.287-10.527 3.824-21.72 4.984-32.505 7.907-151.891 151.912-303.761 303.847-455.717 455.695-13.9 12.182-19.786 33.429-11.881 50.53 3.116 8.25 10.033 14.007 15.94 20.217 59.381 59.423 118.806 118.806 178.188 178.23 10.914 10.398 27.328 13.255 41.678 9.646 13.277-4.147 21.914-15.426 31.496-24.707 145.059-145.059 290.118-290.14 435.199-435.199 4.232-4.554 10.248-8.293 11.107-14.996 11.924-53.301 22.879-106.817 33.622-160.378-21.828-21.935-44.6-42.925-66.449-64.86-5.049 8.529-9.732 17.252-15.383 25.416 12.44 13.255 21.484 31.152 18.949 49.822-0.602 13.277-8.573 24.449-15.855 34.975-7.047 6.317-15.447 11.129-24.105 14.909-6.36 3.050-13.772 1.526-20.066 4.554-0.172-0.516-0.472-1.567-0.623-2.106-11.881 1.503-22.687-4.275-32.076-10.871-10.118-4.877-14.523-15.705-20.108-24.707-7.412-16.822-6.317-37.811 4.575-52.936 3.91-6.703 8.336-13.707 15.597-17.165 5.628-2.772 10.462-6.983 16.435-9.045 7.412-2.17 15.319-1.31 22.731-3.481 7.090-12.783 16.65-23.976 24.062-36.501-7.54-7.004-13.836-15.618-22.086-21.698-12.525 2.685-25.523 4.082-37.898 7.67zM653.265 320.242c-4.232 13.385 4.232 28.058 17.037 32.849 3.33 0.301 6.682 0.73 10.076 0.645 11.258 0.559 21.57-8.529 24.105-19.207-8.551 1.718-14.587-4.984-21.849-7.949-5.199-7.606-11.751-15.232-11.795-24.942-8.551 2.793-15.575 9.711-17.574 18.605z"></path>
<path fill="#557198" d="M397.864 435.203c6.424-1.955 14.416-1.074 18.97 4.339 6.166 6.66 6.703 16.134 8.25 24.599 14.395 83.079 28.875 166.136 43.311 249.192 2.557 12.139-4.082 24.599-14.329 31.022-11.687 5.886-26.854-3.007-28.531-15.705-15.082-87.375-30.164-174.75-45.073-262.146-2.706-12.89 4.684-27.177 17.402-31.302z"></path>
<path fill="#557198" d="M319.877 517.981c15.447-4.362 32.14 0.988 44.407 10.742 18.605 14.781 31.238 37.898 30.937 61.959-0.516 24.127-15.94 46.749-37.275 57.534-17.252 8.163-38.005 2.234-51.969-9.689-16.521-13.986-28.959-34.353-29.541-56.395-1.439-27.714 17.681-54.741 43.441-64.151zM326.215 563.14c-7.239 3.782-11.859 13.213-7.992 20.947 3.566 8.873 10.14 17.037 18.841 21.29 9.066 4.061 17.918-6.251 17.961-14.802-1.268-9.324-7.132-17.274-13.964-23.418-3.996-3.308-9.668-6.618-14.845-4.017z"></path>
<path fill="#557198" d="M500.901 531.881c14.824-2.965 30.357 2.363 41.872 11.73 16.35 13.234 28.509 32.57 30.529 53.774 1.503 16.371-3.652 33.257-14.137 45.933-9.002 11.193-21.162 21.29-35.943 22.879-17.208 1.805-33.88-6.767-45.481-18.992-16.994-17.53-27.264-43.355-21.162-67.696 5.178-21.849 22.129-42.087 44.322-47.63zM502.792 578.329c-6.509 4.168-9.646 13.019-6.251 20.195 3.846 8.873 10.527 17.080 19.336 21.333 8.68 3.308 16.951-6.166 17.252-14.286-0.773-9.99-7.606-18.196-14.824-24.599-4.061-3.739-10.549-6.187-15.511-2.642z"></path>
</svg>
