<!-- Generated by IcoMoon.io -->
<svg version="1.1" xmlns="http://www.w3.org/2000/svg" width="1024" height="1024" viewBox="0 0 1024 1024">
<title></title>
<g id="icomoon-ignore">
</g>
<path fill="#557198" d="M18.342 11.627c7.936-7.336 18.825-9.263 29.064-11.116 16.296-2.203 32.169 3.205 47.814 6.834 14.645 3.355 26.435 13.143 38.001 22.105 9.738 9.964 17.298 21.804 25.134 33.271 203.274-0.075 406.575 0 609.874-0.025 31.793 0.050 64.237-1.276 95.153 7.361 18.626 4.857 38.402 7.16 55.075 17.499 13.193 8.236 25.51 17.823 38.076 26.987 9.688 7.035 17.023 16.597 23.757 26.385 10.365 14.995 22.956 29.14 28.113 47.013 7.361 26.085 13.593 52.972 12.742 80.234-0.075 24.558-5.583 48.716-12.041 72.298-3.655 12.867-10.39 24.583-18.4 35.198-10.689 14.17-19.852 30.041-34.372 40.781-20.854 15.57-41.831 32.945-67.917 38.553-20.052 4.106-39.704 11.39-60.407 11.141-35.748 2.328-71.622 1.127-107.445 1.427-103.466-0.15-206.955 0.326-310.42-0.251-32.569-0.651-65.438-3.905-97.833 1.052-21.98 3.205-40.655 24.358-38.377 46.988 1.527 22.63 23.157 41.932 45.937 40.53 163.622-0.075 327.242 0.050 490.863-0.075 23.858-1.052 46.839 6.359 69.869 11.466 15.997 3.504 32.093 8.512 45.436 18.3 10.74 7.711 21.529 15.321 32.068 23.281 13.369 10.263 21.68 25.209 31.692 38.426 9.964 13.018 18.149 27.738 21.529 43.909 2.904 13.344 6.585 26.536 9.187 39.929 2.078 24.107 2.778 48.991-3.905 72.498-4.581 19.927-8.386 40.781-20.678 57.704-12.717 17.099-23.607 36.3-41.005 49.192-19.251 14.794-39.028 30.366-62.911 36.75-24.433 5.883-48.866 12.516-74.025 14.219-219.847-0.075-439.72 0.075-659.593-0.050-10.614 15.246-20.452 32.068-36.775 41.957-15.17 12.917-35.422 15.746-54.223 19.802-18.149 2.403-39.403-0.15-52.646-14.043-9.112-9.338-11.39-22.781-12.643-35.223-0.1-61.758 0.050-123.517-0.075-185.275 0.1-9.162 2.378-18.199 5.357-26.811 8.436-17.624 28.088-26.661 46.738-28.364 13.894 2.128 27.238 6.809 40.955 9.813 14.67 3.305 26.511 13.168 38.101 22.205 11.34 11.39 19.377 25.46 28.889 38.302 220.423-0.226 440.871 0.050 661.319-0.125 23.431 0.226 44.536-21.605 43.609-44.986 0.801-21.028-15.796-40.254-36.049-44.511-9.213-1.027-18.475-0.45-27.688-0.576-160.267 0-320.534 0.025-480.775 0.050-21.429-0.050-41.907-7.11-62.66-11.516-19.526-3.88-37.976-12.467-53.872-24.408-14.294-10.664-30.242-20.076-40.405-35.198-12.367-18.3-28.163-35.097-34.296-56.826-3.581-14.145-6.734-28.414-10.164-42.607-6.533-35.047 2.128-70.37 11.79-103.966 3.605-11.516 7.385-23.306 14.995-32.92 12.166-15.946 21.98-34.422 39.003-45.887 18.5-12.792 35.748-28.914 58.054-34.646 14.769-3.805 29.665-7.035 44.435-10.689 30.717-6.284 62.21-4.056 93.327-4.456 60.882 0.5 121.814-1.477 182.621 2.002 73.475 0.326 146.923 0.050 220.398 0.15 15.095 0.276 30.115-1.753 45.161-2.703 27.738-5.031 45.362-38.852 31.717-64.037-7.010-15.12-23.056-25.334-39.578-26.010-7.485-0.926-14.97-1.952-22.506-1.902-212.187-0.125-424.399 0.125-636.61-0.125-10.365 13.543-18.701 28.713-30.866 40.856-11.917 9.388-24.283 19.452-39.578 22.53-13.218 2.803-25.985 7.41-39.354 9.388-19.076-1.753-39.354-11.265-47.264-29.69-2.529-8.311-4.757-16.873-4.807-25.609 0.125-61.784-0.025-123.567 0.1-185.351 1.151-13.994 4.656-29.215 16.197-38.402zM47.155 45.149c0 65.965 0 131.928 0 197.893 16.147 0.776 33.095-1.627 46.864-10.664 13.894-8.761 20.979-24.207 30.742-36.8 2.027-3.079 5.458-5.807 4.956-9.888 0.175-25.96-0.1-51.92 0.125-77.905-0.1-4.23 0.576-9.087-2.904-12.292-9.413-11.591-15.921-25.584-27.238-35.573-14.52-12.116-34.096-15.796-52.546-14.769zM164.815 107.933c0.025 21.655-0.025 43.308 0.025 64.963 209.459 0.050 418.892 0.025 628.349 0.025 15.070-0.376 30.041 1.828 44.936 3.93 37.325 6.284 68.293 38.528 73.023 76.103 4.131 27.837-5.883 57.278-26.136 76.854-15.045 14.794-35.397 24.157-56.501 25.485-14.344 0.726-28.588 2.854-42.982 2.454-63.386 0-126.772 0-190.157 0-30.891 0.876-61.708-2.428-92.601-2.002-55.951-0.050-111.926-0.075-167.877 0.025-13.719-0.175-27.437 1.301-40.98 3.355-18.049 4.456-37.25 6.96-53.071 17.499-15.647 10.589-31.993 21.178-43.233 36.7-6.985 9.938-15.020 19.427-19.201 31.018-13.243 35.223-19.752 74.601-9.238 111.426 4.23 24.433 19.877 44.46 35.123 63.135 20.027 20.027 45.011 36.173 72.948 42.283 14.871 3.479 29.84 7.535 45.235 7.309 166.926 0.226 333.876-0.1 500.803 0.1 25.284 0.251 50.117 11.815 66.614 30.966 22.655 25.435 28.564 64.087 14.62 95.128-11.014 25.41-34.296 45.086-61.258 51.494-13.093 3.23-26.661 2.579-40.030 2.604-212.788 0-425.6 0-638.413 0 0 22.53-0.025 45.061 0.025 67.616 211.060 0.025 422.146 0 633.206 0 26.711 0.601 53.472-3.405 79.058-11.014 37.777-13.394 68.643-42.933 86.643-78.456 6.133-12.692 8.736-26.661 11.541-40.38 3.755-35.022 1.853-72.498-15.57-103.916-10.164-15.446-20.277-31.543-35.047-43.059-14.095-10.489-28.138-21.879-45.312-26.887-19.126-5.558-38.677-10.564-58.629-11.716-167.777-0.15-335.579 0.075-503.355-0.1-42.107 0.175-80.985-33.194-87.344-74.776-8.010-43.134 21.954-88.145 63.936-99.41 42.933-10.564 87.394-4.081 131.027-4.28 102.663 0.201 205.328 0.025 307.991 0.1 36.8-0.175 73.699 0.851 110.399-2.529 10.164-1.677 20.228-4.031 30.19-6.659 20.203-5.633 37.601-17.999 53.648-31.092 14.018-12.191 24.558-27.862 34.146-43.634 12.817-26.385 15.396-56.702 14.57-85.666-2.428-26.536-6.859-54.623-24.433-75.828-13.143-21.63-33.47-37.3-54.824-50.168-14.695-8.863-31.943-11.215-48.291-15.346-28.163-4.907-56.826-3.454-85.29-3.655-199.42 0.025-398.864-0.050-598.284 0zM47.155 781.117c0 65.965 0 131.928 0 197.868 15.52 0.726 31.667-1.377 45.161-9.589 15.921-9.213 23.482-26.811 34.572-40.63 4.056-3.93 2.678-9.813 2.954-14.794-0.55-26.36 0.751-52.847-0.626-79.132-8.161-11.215-15.496-23.107-24.358-33.796-14.219-16.122-37.001-21.178-57.704-19.927z"></path>
</svg>
