<!-- Generated by IcoMoon.io -->
<svg version="1.1" xmlns="http://www.w3.org/2000/svg" width="1024" height="1024" viewBox="0 0 1024 1024">
<title></title>
<g id="icomoon-ignore">
</g>
<path fill="#000" d="M512 64c247 0 448 201 448 448s-201 448-448 448-448-201-448-448 201-448 448-448zM512 0c-282.75 0-512 229.25-512 512s229.25 512 512 512 512-229.25 512-512-229.25-512-512-512v0zM797.438 683.188l-2.876-8.75c-6.75-20.124-29-41.124-49.5-46.75l-75.686-20.688c-20.5-5.562-49.75 1.938-64.81 17l-27.376 27.376c-99.5-26.938-177.562-105-204.438-204.5l27.376-27.376c15-15 22.5-44.25 16.938-64.812l-20.628-75.688c-5.562-20.5-26.688-42.75-46.812-49.5l-8.626-2.876c-20.188-6.75-49 0.062-64 15.126l-41 41c-7.312 7.25-12 28.062-12 28.126-1.376 130.126 49.626 255.438 141.626 347.5 91.75 91.75 216.626 142.69 346.312 141.562 0.688 0 22.126-4.562 29.438-11.876l41-41c15-14.938 21.748-43.75 15.062-63.874z"></path>
</svg>
