<!-- Generated by IcoMoon.io -->
<svg version="1.1" xmlns="http://www.w3.org/2000/svg" width="1024" height="1024" viewBox="0 0 1024 1024">
<title></title>
<g id="icomoon-ignore">
</g>
<path fill="#000" d="M1022.596 392.623c-3.363-10.298-12.19-17.654-22.909-19.336l-319.459-45.397-143.757-288.985c-4.834-9.668-14.712-15.763-25.431-15.763v0c-10.719 0-20.597 6.095-25.431 15.973l-141.866 289.826-319.459 47.499c-10.719 1.681-19.546 9.037-22.909 19.336s-0.42 21.648 7.356 29.004l231.819 224.673-53.594 318.198c-1.892 10.719 2.522 21.437 11.349 27.743 4.834 3.573 10.719 5.464 16.604 5.464 4.624 0 9.037-1.051 13.241-3.363l285.202-151.113 286.043 149.432c4.203 2.102 8.617 3.153 13.031 3.153v0c15.553 0 28.373-12.82 28.373-28.373 0-2.312-0.21-4.414-0.841-6.515l-55.275-316.307 230.348-225.934c8.197-7.566 10.929-18.915 7.566-29.214zM734.663 617.716c-6.725 6.515-9.668 15.973-7.987 25.221l48.129 275.955-248.422-129.676c-8.197-4.414-18.075-4.203-26.482 0l-247.582 131.147 46.448-276.375c1.471-9.248-1.471-18.495-8.197-25.010l-200.924-195.039 277.216-41.194c9.248-1.471 17.234-7.146 21.227-15.553l123.16-251.575 124.842 250.944c4.203 8.407 12.19 14.081 21.437 15.553l277.426 39.512-200.293 196.090z"></path>
</svg>
