<!-- Generated by IcoMoon.io -->
<svg version="1.1" xmlns="http://www.w3.org/2000/svg" width="1024" height="1024" viewBox="0 0 1024 1024">
<title></title>
<g id="icomoon-ignore">
</g>
<path fill="#000" d="M960 640h-2.224l-96-640h-699.552l-96 640h-2.224v384h896v-384zM189.776 32h644.432l91.2 608h-253.408v16c0 88.224-71.776 160-160 160s-160-71.776-160-160v-16h-253.424l91.2-608zM928 992h-832v-320h224.656c8.16 98.4 90.864 176 191.344 176s183.184-77.6 191.344-176h224.656v320z"></path>
<path fill="#000" d="M192 480h640v32h-640v-32z"></path>
<path fill="#000" d="M224 320h576v32h-576v-32z"></path>
<path fill="#000" d="M256 160h512v32h-512v-32z"></path>
</svg>
