<?xml version="1.0" encoding="iso-8859-1"?>
<!-- Generator: Adobe Illustrator 19.0.0, SVG Export Plug-In . SVG Version: 6.00 Build 0)  -->
<svg version="1.1" id="Capa_1" xmlns="http://www.w3.org/2000/svg" xmlns:xlink="http://www.w3.org/1999/xlink" x="0px" y="0px"
	 viewBox="0 0 511.895 511.895" style="enable-background:new 0 0 511.895 511.895;" xml:space="preserve">
<g>
	<g>
		<g>
			<path d="M307.198,243.329c2.084-1.204,3.368-3.428,3.368-5.835v-29.073c0.001-2.407-1.284-4.632-3.368-5.836l-160.533-92.684
				c-2.085-1.204-4.653-1.203-6.737,0s-3.368,3.428-3.368,5.835v29.072c-0.001,2.407,1.283,4.632,3.368,5.836l160.533,92.684
				C302.545,244.533,305.114,244.533,307.198,243.329z M297.092,225.823l-147.059-84.902v-13.513l147.059,84.901V225.823z"/>
			<path d="M139.928,95.454l160.533,92.684c2.085,1.205,4.654,1.206,6.74,0.002c2.086-1.204,3.37-3.429,3.369-5.837
				c-0.001-2.408-1.286-4.633-3.372-5.835L146.665,83.783c-2.085-1.205-4.654-1.206-6.74-0.002s-3.37,3.429-3.369,5.837
				C136.556,92.026,137.842,94.251,139.928,95.454z"/>
			<path d="M136.559,331.665c-0.001,2.407,1.284,4.632,3.368,5.835l25.349,14.632c2.085,1.204,4.653,1.203,6.737,0
				s3.368-3.428,3.368-5.835v-29.072c0.001-2.407-1.284-4.632-3.368-5.836l-25.349-14.638c-2.085-1.204-4.653-1.203-6.737,0
				c-2.084,1.204-3.368,3.428-3.368,5.835V331.665z M150.033,314.257l11.875,6.855v13.52l-11.875-6.855V314.257z"/>
			<path d="M307.198,392.388l-118.289-68.29c-3.223-1.858-7.341-0.753-9.201,2.469c-1.86,3.222-0.757,7.341,2.464,9.202
				l118.289,68.29c2.085,1.205,4.654,1.206,6.74,0.002c2.086-1.204,3.37-3.429,3.369-5.837
				C310.569,395.816,309.284,393.591,307.198,392.388z"/>
			<path d="M300.461,430.178c3.223,1.858,7.341,0.753,9.201-2.469c1.86-3.222,0.757-7.341-2.464-9.202l-118.289-68.289
				c-3.223-1.858-7.341-0.753-9.201,2.469c-1.86,3.222-0.757,7.341,2.464,9.202L300.461,430.178z"/>
			<path d="M307.197,444.625L307.197,444.625l-160.533-92.678c-3.223-1.858-7.341-0.753-9.201,2.469
				c-1.86,3.222-0.757,7.341,2.464,9.202l160.533,92.678c2.085,1.205,4.654,1.206,6.74,0.002c2.086-1.204,3.37-3.429,3.369-5.837
				C310.569,448.052,309.284,445.828,307.197,444.625z"/>
			<path d="M194.849,305.382l50.691,29.27c2.085,1.204,4.653,1.203,6.737,0c2.084-1.204,3.368-3.428,3.368-5.835v-17.684
				c1.703,0.456,3.517,0.219,5.046-0.658l12.678-7.217c1.558-0.891,2.696-2.365,3.164-4.097c0.468-1.732,0.227-3.579-0.671-5.133
				l-46.381-80.079c-1.853-3.198-5.935-4.307-9.151-2.487l-46.559,26.421c-1.563,0.888-2.707,2.364-3.178,4.1
				c-0.471,1.736-0.229,3.587,0.671,5.144l12.671,21.855c1.525,2.622,4.613,3.903,7.546,3.132v27.434
				C191.48,301.953,192.764,304.178,194.849,305.382z M186.329,246.25l34.842-19.77l39.632,68.421l-0.974,0.559l-5.092-8.789
				c-1.529-2.635-4.637-3.917-7.579-3.125c-2.942,0.792-4.987,3.46-4.987,6.507v27.092l-37.217-21.487v-34.875
				c-0.001-2.4-1.277-4.618-3.352-5.824c-2.075-1.206-4.634-1.218-6.72-0.031l-2.645,1.507L186.329,246.25z"/>
			<path d="M397.316,122.75l-0.115-0.047L186.092,0.796c-0.269-0.112-0.545-0.205-0.827-0.279c-0.409-0.186-0.836-0.33-1.274-0.429
				c-0.847-0.118-1.706-0.118-2.553,0c-0.44,0.099-0.869,0.244-1.279,0.431c-0.279,0.073-0.552,0.165-0.817,0.276l-64.763,37.388
				c-0.683,0.412-1.286,0.944-1.781,1.57c-0.127,0.154-0.243,0.303-0.357,0.467c-0.446,0.62-0.784,1.312-0.998,2.045l-0.008,0.065
				c-0.146,0.551-0.221,1.119-0.224,1.689v339.191c-0.001,2.407,1.284,4.632,3.368,5.836l211.224,121.947l0.025,0.01
				c0.375,0.198,0.768,0.36,1.174,0.484c0.153,0.053,0.294,0.141,0.45,0.183c0.381,0.084,0.769,0.134,1.159,0.151
				c0.189,0.016,0.372,0.073,0.561,0.073l0.003,0l0.003,0c1.18,0.001,2.34-0.31,3.362-0.901l21.249-12.27
				c1.311-0.293,2.501-0.98,3.41-1.969l7.722-4.458l32.382-18.691c0.204-0.159,0.398-0.33,0.581-0.512
				c0.408-0.284,0.782-0.614,1.115-0.983c0.518-0.676,0.941-1.419,1.257-2.21c0.121-0.4,0.203-0.81,0.247-1.225
				c0.082-0.297,0.143-0.599,0.183-0.905V128.586C400.685,126.178,399.401,123.953,397.316,122.75z M322.434,493.487
				l-197.75-114.164V55.691l197.75,114.171V493.487z M329.171,158.194L131.423,44.02l9.179-5.299l197.754,114.171L329.171,158.194z
				 M345.487,487.956l-9.579,5.531V169.865l9.579-5.53L345.487,487.956z M351.834,145.113L154.077,30.941l9.28-5.357
				l197.752,114.175L351.834,145.113z M367.888,475.024l-8.928,5.153V156.558l8.928-5.154V475.024z M374.587,131.981L176.834,17.804
				l5.882-3.396l197.739,114.184L374.587,131.981z M387.178,463.89l-5.816,3.357V143.626l5.816-3.357V463.89z"/>
		</g>
	</g>
</g>
<g>
</g>
<g>
</g>
<g>
</g>
<g>
</g>
<g>
</g>
<g>
</g>
<g>
</g>
<g>
</g>
<g>
</g>
<g>
</g>
<g>
</g>
<g>
</g>
<g>
</g>
<g>
</g>
<g>
</g>
</svg>
