<!-- Generated by IcoMoon.io -->
<svg version="1.1" xmlns="http://www.w3.org/2000/svg" width="1024" height="1024" viewBox="0 0 1024 1024">
<title></title>
<g id="icomoon-ignore">
</g>
<path fill="#557198" d="M605.298 2.342c15.277-1.572 31.172-4.886 46.020 1.096 5.123 5.076 11.582 9.318 14.538 16.158 4.576 10.176 6.65 21.21 9.699 31.887 3.885 15.062 9.604 30.171 8.722 45.972-1.835 10.533-4.695 21.091-10.248 30.315-3.383 4.552-0.715 10.201 0.357 15.085 5.625 19.185 10.104 38.655 15.705 57.84 22.76-6.911 46.067-11.868 68.778-18.923 10.462-21.162 31.363-37.393 55.314-39.323 19.185-3.026 36.629 11.773 41.491 29.766 15.753-3.527 31.124-10.582 47.568-9.51 16.42 1.049 31.172 11.558 39.418 25.5 5.791 11.916 8.461 25.024 11.939 37.75 5.672 19.804-1.764 42.803-18.731 54.813-13.632 9.271-30.481 11.416-45.972 16.039 0.834 17.779-8.771 35.677-24.261 44.494-20.043 8.485-44.614 8.461-63.392-3.36-23.785 4.886-47.045 12.178-70.542 18.303 11.439 55.267 19.661 111.2 24.952 167.395 6.148 63.631 10.533 128.096 1.359 191.68-3.504 28.456-13.369 55.528-21.186 82.983-5.72 18.708-11.201 37.822-21.615 54.576-13.608 23.736-33.246 42.969-51.763 62.821-15.895 16.683-31.482 34.032-50.691 47.021-21.020 15.61-45.639 25.047-69.256 35.89-23.475 10.606-48.522 18.113-74.213 20.615-35.582 3.885-71.996 8.175-107.41 0.573-14.68-2.694-28.717-7.817-43.064-11.844-23.736-7.221-48.117-13.322-70.066-25.215-19.756-10.224-37.75-23.712-53.527-39.346-19.78-19.161-41.325-36.749-58.508-58.435-12.107-14.728-21.425-31.506-29.623-48.665-8.698-20.138-18.731-39.751-25.5-60.676-7.578-24.285-9.723-49.737-12.107-74.928-3.099-24.905-2.669-50.333 2.287-74.976 3.814-20.376 11.177-39.846 16.683-59.794 7.722-27.55 17.732-55.052 35.009-78.169 16.635-21.354 36.463-39.895 54.647-59.89 35.939-36.987 80.528-64.084 125.641-88.392 74.498-37.583 151.119-71.567 230.716-96.901-6.34-23.402-12.63-46.83-18.899-70.281-17.254-8.508-29.171-25.166-33.198-43.779-3.432-17.112-8.984-33.674-13.345-50.499-0.977-19.685 12.273-40.49 31.697-45.876 15.944-5.338 30.696-13.965 47.258-17.516 18.994-4.529 37.607-11.749 57.315-12.273zM538.21 56.845c-11.273 4.671-24.070 8.364-31.934 18.326 4.91 15.992 9.032 32.221 13.035 48.451 3.336 11.439 14.728 19.423 26.62 18.755 7.221 30.243 16.302 59.985 23.641 90.203 28.312-7.197 56.482-14.919 84.675-22.569-8.364-29.862-15.92-59.914-24.332-89.751 12.774-5.838 20.090-21.472 16.42-35.033-3.79-14.752-8.317-29.313-11.511-44.209-7.77-3.766-16.635-2.621-24.929-2.002-24.5 3.026-48.498 9.51-71.687 17.826zM798.741 187.993c-5.743 6.745-10.819 14.967-9.128 24.237-78.002 20.615-155.766 42.159-233.91 62.201-55.696 17.159-109.937 38.799-163.058 62.75-62.368 28.456-124.618 59.699-176.833 104.789-18.684 16.944-35.414 35.89-52.431 54.456-24.38 27.431-36.2 62.988-45.829 97.734-9.103 26.882-13.847 55.243-13.345 83.65 2.621 33.412 4.79 67.564 16.896 99.188 13.608 32.864 27.407 66.634 51.358 93.517 12.036 14.943 27.145 26.906 40.658 40.419 26.287 26.096 58.96 45.829 94.59 56.1 21.925 6.196 43.421 14.228 66.039 17.564 32.578 6.077 65.729 1.264 98.236-2.717 29.122-3.861 56.243-16.039 82.625-28.36 31.721-14.013 59.508-36.034 82.196-62.083 24.619-25.286 48.975-52.668 60.151-86.844 9.079-28.956 19.065-57.817 23.665-87.916 3.409-22.831 5.648-45.9 5.457-68.993 1.096-49.69-2.979-99.332-8.866-148.616-5.005-44.851-11.678-89.632-21.877-133.602-27.955 8.056-56.029 15.872-84.341 22.521 15.705 82.411 28.336 166.036 27.002 250.188 0.047 26.358-1.882 52.716-6.387 78.717-4.647 25.19-11.368 50.499-24.524 72.711-23.284 39.323-58.818 71.377-100.594 89.99-42.159 18.899-90.276 24.832-135.603 15.419-46.877-8.818-90.442-33.889-121.853-69.78-33.722-37.44-53.456-86.749-56.387-136.938-2.36-44.542 9.152-89.703 32.316-127.811 16.015-24.808 38.108-44.971 61.486-62.701 44.327-33.364 93.946-58.913 144.255-81.934 56.148-24.952 113.702-47.045 173.020-63.274 69.375-19.138 139.059-37.178 208.505-56.172 6.673 12.822 24.070 18.16 36.654 10.796 0.691-3.265 1.406-6.53 2.169-9.771-2.026-32.531-10.248-64.441-22.259-94.637-3.312-7.388-6.435-15.419-12.393-21.091-6.601-2.36-12.94 2.145-17.659 6.292zM870.666 208.369c4.981 16.468 8.984 33.174 13.369 49.808 10.343-3.599 22.187-4.195 31.124-10.963 4.671-10.509-2.074-21.854-3.861-32.364-1.001-6.816-5.911-11.892-12.441-13.655-9.413 2.407-18.851 4.576-28.193 7.173zM396.673 472.998c-40.395 21.472-80.194 45.019-114.298 75.786-22.33 19.709-36.749 46.83-45.972 74.808-7.626 29.981-10.057 62.035-2.645 92.325 6.911 37.059 27.621 70.305 53.598 97.116 21.21 18.636 46.139 33.222 72.949 42.206 37.607 9.843 78.454 10.438 115.251-3.17 22.664-6.816 42.826-19.948 61.058-34.747 17.611-13.537 30.386-32.221 41.396-51.238 14.609-25.881 17.826-55.933 21.044-84.914 7.77-94.422-5.315-189.13-23.736-281.599-61.368 19.614-121.28 44.065-178.645 73.426z"></path>
</svg>
