<?xml version="1.0" encoding="UTF-8" ?>
<!DOCTYPE svg PUBLIC "-//W3C//DTD SVG 1.1//EN" "http://www.w3.org/Graphics/SVG/1.1/DTD/svg11.dtd">
<svg width="600pt" height="600pt" viewBox="0 0 600 600" version="1.1" xmlns="http://www.w3.org/2000/svg">
<g id="#557198ff">
<path fill="#557198" opacity="1.00" d=" M 161.20 137.13 C 170.29 119.18 189.51 105.78 210.01 106.41 C 239.02 106.37 268.04 106.29 297.05 106.25 C 301.71 106.12 306.39 106.53 311.02 105.94 C 315.01 106.63 319.00 105.54 323.00 105.75 C 347.66 105.88 372.32 105.41 396.97 105.87 C 406.04 106.45 415.08 109.99 421.41 116.66 C 428.76 124.84 431.94 136.19 431.49 147.04 C 431.59 151.35 428.09 155.33 423.89 156.06 C 419.36 156.79 414.78 157.31 410.27 158.20 C 383.81 161.93 357.43 166.31 330.95 169.85 L 330.33 170.28 C 319.52 171.43 308.80 173.43 298.01 174.79 C 292.94 175.59 287.50 176.07 283.22 179.20 C 278.58 182.34 276.47 187.77 274.52 192.78 C 278.01 193.07 281.51 193.02 285.01 192.99 C 333.01 192.99 381.01 192.99 429.02 192.99 C 435.67 193.09 442.47 192.39 448.93 194.44 C 458.12 196.01 466.40 201.84 471.51 209.56 C 476.01 215.34 476.98 222.89 478.19 229.90 C 478.50 229.79 479.11 229.58 479.41 229.48 C 479.69 241.82 479.43 254.17 479.57 266.52 C 479.23 266.43 478.54 266.26 478.19 266.18 C 477.78 271.52 475.64 276.86 471.04 279.92 C 468.26 282.53 464.33 282.57 460.96 283.84 C 457.78 292.78 455.09 301.90 451.96 310.86 C 449.74 315.66 445.38 319.77 440.06 320.73 C 437.41 321.35 434.74 322.07 432.01 322.02 C 421.32 321.97 410.64 322.04 399.96 321.99 C 392.52 321.77 384.91 318.33 381.73 311.24 C 378.27 302.25 375.24 293.08 371.98 284.01 C 339.32 284.00 306.67 284.01 274.01 284.01 C 274.07 332.24 273.87 380.48 274.11 428.72 C 280.32 431.09 285.63 435.17 290.91 439.10 C 295.54 442.89 299.29 447.74 302.00 453.06 C 305.59 463.16 306.44 474.57 302.86 484.79 C 299.63 492.06 291.44 494.95 284.00 495.02 C 237.00 494.99 190.00 494.99 143.00 495.02 C 136.55 495.14 129.31 494.30 124.51 489.53 C 119.41 484.47 118.85 476.75 118.97 469.97 C 118.64 464.40 120.18 458.98 121.74 453.70 C 124.12 448.48 127.77 443.85 132.00 440.00 C 138.66 434.67 145.79 429.69 154.02 427.13 C 153.97 357.43 153.99 287.72 154.01 218.01 C 153.58 200.00 153.57 181.96 153.85 163.94 C 154.58 154.64 156.65 145.37 161.20 137.13 M 208.99 124.60 C 193.74 124.78 180.54 136.44 175.30 150.26 C 171.66 158.71 172.37 168.05 172.34 177.03 C 172.41 182.81 172.25 188.61 172.55 194.39 C 200.18 194.40 227.81 194.39 255.44 194.40 C 257.83 182.56 263.03 170.34 273.57 163.58 C 282.05 157.42 292.86 157.19 302.81 155.55 C 329.14 151.73 355.46 147.87 381.75 143.81 C 392.06 142.44 402.30 140.61 412.61 139.29 C 411.62 134.95 409.83 130.54 406.24 127.70 C 402.49 124.85 397.63 124.23 393.05 124.33 C 331.70 124.39 270.35 124.50 208.99 124.60 M 273.94 211.70 C 274.09 229.79 273.97 247.90 274.00 266.00 C 336.19 265.98 398.37 266.04 460.55 265.97 C 460.49 255.27 460.56 244.58 460.52 233.89 C 460.50 228.62 459.45 223.12 456.23 218.82 C 452.40 213.89 446.19 210.85 439.93 210.99 C 387.29 211.01 334.64 211.01 282.00 210.99 C 279.31 211.06 276.49 210.62 273.94 211.70 M 172.00 212.00 C 172.01 282.31 171.98 352.63 172.02 422.94 C 186.25 420.78 200.70 421.17 215.05 420.99 C 228.72 421.30 242.55 420.87 256.00 423.74 C 255.99 353.16 256.00 282.58 256.00 212.00 C 228.00 212.00 200.00 212.00 172.00 212.00 M 390.92 284.01 C 393.29 290.67 395.62 297.34 398.00 304.00 C 410.54 303.95 423.07 304.11 435.60 303.92 C 437.64 297.25 439.93 290.65 442.07 284.02 C 425.02 284.00 407.97 284.00 390.92 284.01 M 159.98 443.99 C 152.11 446.97 144.38 451.52 139.50 458.55 C 135.54 463.90 137.42 470.85 137.00 477.00 C 187.00 477.00 237.00 477.00 287.00 477.00 C 286.88 472.63 287.26 468.23 286.82 463.88 C 285.50 458.19 281.04 453.85 276.45 450.55 C 265.16 442.15 250.70 440.17 237.02 439.47 C 224.01 439.05 210.99 438.78 197.97 439.19 C 185.21 439.33 172.16 439.80 159.98 443.99 Z" />
<path fill="#557198" opacity="1.00" d=" M 416.50 350.57 C 422.39 350.57 428.68 352.86 432.18 357.86 C 442.33 372.00 452.18 386.46 459.94 402.08 C 462.50 407.35 464.89 412.75 466.38 418.43 C 468.12 425.81 470.68 433.38 468.90 441.02 C 467.21 448.45 466.02 456.27 461.79 462.78 C 458.46 467.67 455.11 472.68 450.44 476.41 C 445.18 480.49 439.61 484.56 433.01 486.08 C 427.74 487.30 422.48 488.97 417.02 489.00 C 412.20 489.02 407.56 487.63 402.91 486.56 C 393.80 484.70 385.95 479.01 379.49 472.55 C 374.64 466.74 369.88 460.48 367.91 453.03 C 365.80 444.56 362.97 435.68 365.56 426.98 C 368.75 409.83 377.96 394.69 387.22 380.20 C 392.25 372.35 397.70 364.77 403.25 357.27 C 406.41 353.09 411.48 351.28 416.50 350.57 M 417.48 367.99 C 407.56 381.51 398.03 395.41 390.37 410.35 C 387.12 416.94 383.97 423.74 382.78 431.05 C 380.90 446.71 390.39 463.25 405.30 468.81 C 415.97 473.03 428.73 470.95 437.61 463.73 C 445.50 457.51 450.44 447.90 451.33 437.93 C 452.23 429.39 448.86 421.19 445.46 413.55 C 437.88 397.38 427.92 382.44 417.48 367.99 Z" />
<path fill="#557198" opacity="1.00" d=" M 393.78 425.03 C 395.59 419.94 401.18 418.32 406.06 419.56 C 408.95 421.43 411.49 424.22 411.55 427.86 C 411.76 432.48 414.28 437.36 418.97 438.76 C 422.07 439.68 424.86 441.73 426.16 444.77 C 427.21 448.23 426.58 452.34 423.70 454.75 C 421.28 457.43 417.29 456.95 414.07 456.47 C 400.88 452.90 391.40 438.55 393.78 425.03 Z" />
</g>
</svg>
