<!-- Generated by IcoMoon.io -->
<svg version="1.1" xmlns="http://www.w3.org/2000/svg" width="1024" height="1024" viewBox="0 0 1024 1024">
<title></title>
<g id="icomoon-ignore">
</g>
<path fill="#000" d="M880.362 538.851h-698.245c-9.923 0-17.961 8.037-17.961 17.961v112.341c0 9.923 8.082 17.961 17.961 17.961 54.374 0 91.373 15.58 110.006 46.337 51.995 85.715-39.018 262.487-39.961 264.284-2.874 5.568-2.694 12.258 0.584 17.646s9.070 8.621 15.356 8.621h367.106c0.359 0 0.674 0 0.898 0 9.968 0 17.961-8.037 17.961-17.961 0-4.31-1.527-8.306-4.086-11.36-9.653-26.043-50.468-163.572 116.921-271.378 133.489-86.074 131.962-159.666 131.379-167.792-0.719-9.429-8.531-16.658-17.915-16.658zM747.412 693.038c-162.36 104.618-150.237 239.723-136.587 294.995h-314.303c25.279-56.844 75.747-191.769 26.356-273.219-23.303-38.39-64.567-59.627-122.758-63.13v-76.96h658.778c-7.723 23.123-32.508 67.396-111.487 118.313z"></path>
<path fill="#000" d="M402.847 432.93v-292.795c0-28.826-16.344-50.558-38.031-50.558h-201.154c-21.328 0-38.031 22.226-38.031 50.558v292.795c0 28.871 16.344 50.602 38.031 50.602h201.154c21.687 0 38.031-21.732 38.031-50.602zM166.088 448.241c-1.167-0.898-4.49-6.196-4.49-15.311v-292.795c0-9.070 3.278-14.368 2.066-14.637l198.819-0.628c1.167 0.898 4.445 6.196 4.445 15.266v41.398h-73.771c-9.923 0-17.961 8.037-17.961 17.961s8.082 17.961 17.961 17.961h73.771v215.522c0 7.858-2.425 12.886-3.861 14.682l-196.978 0.584z"></path>
<path fill="#000" d="M148.127 35.921h225.444c9.923 0 17.961-8.037 17.961-17.961s-8.082-17.961-17.961-17.961h-225.444c-9.923 0-17.961 8.037-17.961 17.961s8.082 17.961 17.961 17.961z"></path>
<path fill="#000" d="M463.373 483.533h417.035c9.923 0 17.961-8.037 17.961-17.961s-8.082-17.961-17.961-17.961h-417.035c-9.923 0-17.961 8.037-17.961 17.961s8.037 17.961 17.961 17.961z"></path>
</svg>
