<!-- Generated by IcoMoon.io -->
<svg version="1.1" xmlns="http://www.w3.org/2000/svg" width="1024" height="1024" viewBox="0 0 1024 1024">
<title></title>
<g id="icomoon-ignore">
</g>
<path fill="#000" d="M877.716 0c-20.199 0-36.572 16.374-36.572 36.572v133.594c-188.284-182.286-488.689-177.422-670.975 10.86-85.907 88.734-133.832 207.467-133.594 330.973 0 20.199 16.374 36.572 36.572 36.572s36.57-16.374 36.57-36.572c0.045-222.176 180.188-402.25 402.366-402.205 112.836 0.021 220.474 47.432 296.661 130.663l-162.011 54.015c-19.187 6.384-29.569 27.111-23.186 46.299s27.111 29.569 46.299 23.186l219.428-73.142c14.979-4.989 25.065-19.029 25.016-34.815v-219.428c-0.002-20.196-16.376-36.57-36.574-36.57z"></path>
<path fill="#000" d="M950.858 475.429c-20.199 0-36.572 16.374-36.572 36.572-0.045 222.176-180.188 402.25-402.366 402.205-112.836-0.021-220.474-47.432-296.661-130.663l162.011-54.015c19.187-6.384 29.569-27.111 23.186-46.299s-27.111-29.569-46.299-23.186l-219.428 73.142c-14.979 4.989-25.065 19.029-25.016 34.815v219.428c0 20.199 16.374 36.572 36.572 36.572s36.572-16.374 36.572-36.572v-133.596c188.284 182.286 488.691 177.424 670.975-10.86 85.907-88.734 133.832-207.467 133.594-330.973 0.004-20.199-16.369-36.572-36.568-36.572z"></path>
</svg>
