<!-- Generated by IcoMoon.io -->
<svg version="1.1" xmlns="http://www.w3.org/2000/svg" width="1024" height="1024" viewBox="0 0 1024 1024">
<title></title>
<g id="icomoon-ignore">
</g>
<path fill="#000" d="M905.43 986.274c0 20.802 16.926 37.726 37.726 37.726h43.116c20.8 0 37.726-16.926 37.726-37.726v-237.138c0-20.802-16.926-37.726-37.726-37.726h-43.116c-20.802 0-37.726 16.926-37.726 37.726v5.39h-97.010v-14.422c12.736-6.064 21.558-19.064 21.558-34.084v-43.116c0-20.802-16.926-37.726-37.726-37.726h-5.39v-26.948c0-20.802-16.926-37.726-37.726-37.726h-21.558c-20.802 0-37.726 16.926-37.726 37.726v26.948h-32.336v-97.010h26.948c32.69 0 59.284-26.594 59.284-59.284v-409.6c-0.002-32.69-26.596-59.284-59.286-59.284h-344.926c-32.69 0-59.284 26.594-59.284 59.284v409.6c0 32.69 26.594 59.284 59.284 59.284h26.948v97.010h-32.336v-26.948c0-20.802-16.926-37.726-37.726-37.726h-21.558c-20.802 0-37.726 16.926-37.726 37.726v26.948h-5.39c-20.802 0-37.726 16.926-37.726 37.726v43.116c0 15.020 8.822 28.018 21.558 34.084v14.422h-97.010v-5.39c0-20.802-16.926-37.726-37.726-37.726h-43.116c-20.802 0-37.726 16.926-37.726 37.726v237.136c0 20.802 16.926 37.726 37.726 37.726h43.116c20.802 0 37.726-16.926 37.726-37.726v-5.39h97.010v5.39c0 20.802 16.926 37.726 37.726 37.726h517.386c20.802 0 37.726-16.926 37.726-37.726v-5.39h97.012v5.392zM339.534 495.832c-14.86 0-26.948-12.088-26.948-26.948v-350.316h53.894v377.264h-26.946zM398.82 495.832v-377.264h53.894v377.264h-53.894zM485.050 495.832v-377.264h53.894v377.264h-53.894zM571.282 495.832v-377.264h5.39c8.93 0 16.168-7.24 16.168-16.168s-7.24-16.168-16.168-16.168h-264.084v-26.948c0-14.86 12.088-26.948 26.948-26.948h344.926c14.86 0 26.948 12.088 26.948 26.948v26.948h-70.064c-8.93 0-16.168 7.24-16.168 16.168v393.432h-53.896zM657.514 495.832v-377.264h53.894v350.316c0 14.86-12.088 26.948-26.948 26.948h-26.946zM269.472 625.178v-26.948c0-2.97 2.418-5.39 5.39-5.39h21.558c2.97 0 5.39 2.418 5.39 5.39v26.948h-32.338zM398.82 625.178v-97.010h226.356v97.010h-226.356zM722.188 625.178v-26.948c0-2.97 2.418-5.39 5.39-5.39h21.558c2.97 0 5.39 2.418 5.39 5.39v26.948h-32.338zM86.23 986.274c0 2.97-2.418 5.39-5.39 5.39h-43.116c-2.97 0-5.39-2.418-5.39-5.39v-237.138c0-2.97 2.418-5.39 5.39-5.39h43.116c2.97 0 5.39 2.418 5.39 5.39v64.674c0 8.93 7.24 16.168 16.168 16.168s16.168-7.24 16.168-16.168v-26.948h97.010v161.684h-97.010v-70.064c0-8.93-7.24-16.168-16.168-16.168s-16.168 7.24-16.168 16.168v107.792zM776.082 986.274c0 2.97-2.418 5.39-5.39 5.39h-517.39c-2.97 0-5.39-2.418-5.39-5.39v-242.526h371.876c8.93 0 16.168-7.24 16.168-16.168 0-8.93-7.24-16.168-16.168-16.168h-388.042c-2.97 0-5.39-2.418-5.39-5.39v-43.116c0-2.97 2.418-5.39 5.39-5.39h560.504c2.97 0 5.39 2.418 5.39 5.39v43.116c0 2.97-2.418 5.39-5.39 5.39h-107.79c-8.93 0-16.168 7.24-16.168 16.168 0 8.93 7.24 16.168 16.168 16.168h91.622v242.526zM905.43 878.484v70.064h-97.010v-161.684h97.010v26.948c0 8.93 7.24 16.168 16.168 16.168s16.168-7.24 16.168-16.168v-64.674c0-2.97 2.418-5.39 5.39-5.39h43.116c2.97 0 5.39 2.418 5.39 5.39v237.136c0 2.97-2.418 5.39-5.39 5.39h-43.116c-2.97 0-5.39-2.418-5.39-5.39v-107.79c0-8.93-7.24-16.168-16.168-16.168s-16.168 7.238-16.168 16.168z"></path>
</svg>
