<!-- Generated by IcoMoon.io -->
<svg version="1.1" xmlns="http://www.w3.org/2000/svg" width="1024" height="1024" viewBox="0 0 1024 1024">
<title></title>
<g id="icomoon-ignore">
</g>
<path fill="#000" d="M1016.316 285.666c-7.484-10.274-19.5-16.412-32.144-16.412h-612.33c-9.128 0-16.516 7.396-16.516 16.516 0 9.122 7.388 16.516 16.516 16.516h612.33c2.144 0 4.13 1.024 5.45 2.822 1.322 1.822 1.708 4.202 1.032 6.404l-91.856 297.294c-3.678 11.872-14.34 19.838-26.534 19.838h-530.938c-13.564 0-25.26-9.386-28.452-22.808l-121.194-510.722c-3.886-16.5-18.386-28.026-35.258-28.026h-139.904c-9.13 0-16.516 7.396-16.516 16.516s7.386 16.516 16.516 16.516h139.904c1.45 0 2.758 1.080 3.11 2.596l121.212 510.73c6.726 28.404 31.644 48.226 60.582 48.226h530.938c26.776 0 50.114-17.322 58.082-43.114l91.856-297.286c3.756-12.088 1.548-25.41-5.888-35.612z"></path>
<path fill="#000" d="M472.020 496.516c-9.13 0-16.516 7.388-16.516 16.516s7.386 16.516 16.516 16.516h344.23c9.128 0 16.516-7.388 16.516-16.516s-7.388-16.516-16.516-16.516h-344.23z"></path>
<path fill="#000" d="M867.184 413.936c0-9.12-7.386-16.516-16.516-16.516h-413.068c-9.13 0-16.516 7.396-16.516 16.516s7.386 16.516 16.516 16.516h413.068c9.13 0 16.516-7.396 16.516-16.516z"></path>
<path fill="#000" d="M478.972 727.744c-45.534 0-82.582 37.048-82.582 82.582s37.048 82.582 82.582 82.582c45.532 0 82.582-37.048 82.582-82.582s-37.048-82.582-82.582-82.582zM478.972 859.876c-27.322 0-49.548-22.226-49.548-49.548s22.226-49.548 49.548-49.548 49.548 22.226 49.548 49.548-22.226 49.548-49.548 49.548z"></path>
<path fill="#000" d="M743.232 727.744c-45.534 0-82.582 37.048-82.582 82.582s37.048 82.582 82.582 82.582c45.532 0 82.582-37.048 82.582-82.582s-37.048-82.582-82.582-82.582zM743.232 859.876c-27.322 0-49.548-22.226-49.548-49.548s22.226-49.548 49.548-49.548 49.548 22.226 49.548 49.548-22.226 49.548-49.548 49.548z"></path>
</svg>
