<!-- Generated by IcoMoon.io -->
<svg version="1.1" xmlns="http://www.w3.org/2000/svg" width="1024" height="1024" viewBox="0 0 1024 1024">
<title></title>
<g id="icomoon-ignore">
</g>
<path fill="#000" d="M328.818 536.077c-9.127-2.356-18.439 3.132-20.795 12.26s3.132 18.439 12.26 20.795c66.108 17.179 117.698 68.865 134.755 135.005 1.934 7.549 8.735 12.832 16.529 12.836v-0.002c5.275 0.002 10.254-2.434 13.49-6.599 3.234-4.167 4.363-9.593 3.054-14.702-20.149-78.194-81.139-139.297-159.293-159.593z"></path>
<path fill="#000" d="M394.63 469.308c-5.905-1.524-12.174 0.216-16.447 4.569-4.273 4.351-5.899 10.652-4.267 16.529s6.275 10.436 12.18 11.96c66.108 17.179 117.698 68.865 134.755 135.005 1.934 7.549 8.735 12.83 16.529 12.836v0c5.275 0.002 10.254-2.436 13.488-6.601 3.234-4.167 4.363-9.593 3.056-14.702-20.151-78.196-81.141-139.299-159.295-159.595z"></path>
<path fill="#000" d="M460.444 402.538c-5.905-1.524-12.174 0.216-16.447 4.569-4.273 4.351-5.899 10.652-4.267 16.527 1.632 5.877 6.275 10.436 12.18 11.96 66.108 17.179 117.698 68.865 134.753 135.005 1.934 7.549 8.733 12.832 16.529 12.838v0c5.275 0 10.252-2.438 13.486-6.603 3.234-4.167 4.363-9.591 3.058-14.702-20.149-78.194-81.139-139.297-159.293-159.593z"></path>
<path fill="#000" d="M526.254 335.768c-5.905-1.524-12.174 0.216-16.447 4.569-4.273 4.351-5.899 10.652-4.267 16.527s6.275 10.436 12.18 11.96c66.108 17.179 117.698 68.865 134.755 135.005 1.934 7.549 8.733 12.832 16.529 12.838v0c5.273-0.002 10.252-2.44 13.486-6.605s4.363-9.591 3.058-14.702c-20.151-78.192-81.139-139.295-159.295-159.591z"></path>
<path fill="#000" d="M592.068 269c-5.905-1.524-12.174 0.216-16.447 4.569-4.273 4.351-5.899 10.652-4.267 16.527 1.632 5.877 6.275 10.436 12.18 11.96 66.108 17.179 117.698 68.863 134.755 135.005 1.934 7.549 8.733 12.832 16.529 12.84v0c5.273-0.004 10.25-2.442 13.484-6.607s4.363-9.589 3.060-14.7c-20.151-78.194-81.141-139.297-159.295-159.593z"></path>
<path fill="#000" d="M657.881 202.229c-5.905-1.524-12.174 0.216-16.447 4.569-4.273 4.351-5.899 10.652-4.267 16.527 1.632 5.877 6.275 10.436 12.18 11.96 66.108 17.179 117.698 68.863 134.755 135.005 1.934 7.549 8.733 12.834 16.529 12.842v0c5.273-0.006 10.248-2.444 13.482-6.609s4.365-9.589 3.062-14.7c-20.151-78.194-81.141-139.297-159.295-159.593z"></path>
<path fill="#000" d="M723.693 135.462c-5.905-1.524-12.174 0.216-16.447 4.569-4.273 4.351-5.899 10.652-4.267 16.527s6.275 10.436 12.18 11.96c66.108 17.179 117.698 68.863 134.755 135.003 1.934 7.551 8.733 12.834 16.527 12.842v0c5.273-0.006 10.248-2.446 13.48-6.611s4.365-9.589 3.064-14.698c-20.149-78.194-81.139-139.297-159.293-159.591z"></path>
<path fill="#000" d="M948.794 228.281c-20.147-78.192-81.137-139.297-159.291-159.591-5.905-1.524-12.174 0.216-16.447 4.569-4.273 4.351-5.899 10.652-4.267 16.527s6.275 10.436 12.18 11.96c66.108 17.179 117.698 68.865 134.755 135.005 1.934 7.551 8.733 12.834 16.529 12.844v0c5.273-0.008 10.246-2.448 13.48-6.613 3.228-4.167 4.361-9.591 3.060-14.7z"></path>
<path fill="#000" d="M959.004 65.073c-86.575-86.575-226.915-86.669-313.606-0.208l-580.355 580.355c-63.496 63.436-82.503 158.887-48.145 241.805 34.355 82.919 115.3 136.957 205.054 136.895 58.851 0.104 115.318-23.246 156.908-64.886l580.355-580.355c86.461-86.691 86.367-227.029-0.21-313.606zM293.806 975.6c-70.163 29.062-150.925 12.998-204.626-40.702-35.349-35.139-55.227-82.927-55.227-132.77s19.877-97.631 55.227-132.77v0c53.7-53.7 134.463-69.765 204.626-40.702s115.912 97.529 115.912 173.473-45.749 144.41-115.912 173.473zM935.076 354.543l-497.126 497.126c17.253-74.403-5.085-152.444-59.091-206.45s-132.046-76.344-206.45-59.091l497.126-497.128c73.327-73.327 192.214-73.327 265.541 0s73.327 192.216 0 265.543z"></path>
<path fill="#000" d="M163.163 660.198c-57.405 23.778-94.835 79.794-94.835 141.93 0.098 84.803 68.821 153.526 153.624 153.624 62.136 0 118.152-37.43 141.93-94.835s10.636-123.481-33.301-167.418c-43.937-43.935-110.013-57.079-167.418-33.301zM221.951 921.611c-65.99 0-119.484-53.496-119.484-119.484 0.074-65.958 53.526-119.41 119.484-119.484 65.99 0 119.484 53.496 119.484 119.484s-53.494 119.484-119.484 119.484z"></path>
</svg>
