<!-- Generated by IcoMoon.io -->
<svg version="1.1" xmlns="http://www.w3.org/2000/svg" width="1024" height="1024" viewBox="0 0 1024 1024">
<title></title>
<g id="icomoon-ignore">
</g>
<path fill="#000" d="M987.593 341.33h-63.727c-20.11 0-36.403 16.293-36.403 36.403v14.801h-227.104l-35.276-94.088c35.303-31.267 57.58-76.907 57.58-127.779 0.002-94.263-76.4-170.665-170.665-170.665s-170.665 76.402-170.665 170.665c0 50.872 22.277 96.512 57.58 127.779l-35.276 94.088h-227.102v-14.801c0-20.11-16.293-36.403-36.403-36.403h-63.729c-20.11 0-36.403 16.295-36.403 36.403v302.66c0 20.11 16.293 36.403 36.403 36.403h63.727c20.11 0 36.403-16.293 36.403-36.403v-14.792h34.134v119.466h-14.792c-20.11 0-36.403 16.293-36.403 36.403v63.727c0 20.11 16.293 36.403 36.403 36.403h14.797v65.996c0 20.11 16.293 36.403 36.403 36.403h200.26c20.11 0 36.403-16.293 36.403-36.403v-65.996h14.797c20.11 0 36.403-16.293 36.403-36.403v-63.727c0-20.11-16.293-36.403-36.403-36.403h-14.801v-119.466h136.533v119.466h-14.792c-20.11 0-36.403 16.293-36.403 36.403v63.727c0 20.11 16.293 36.403 36.403 36.403h14.797v65.996c0 20.11 16.293 36.403 36.403 36.403h200.26c20.11 0 36.403-16.293 36.403-36.403v-65.996h14.797c20.11 0 36.403-16.293 36.403-36.403v-63.727c0-20.11-16.293-36.403-36.403-36.403h-14.801v-119.466h34.134v14.792c0 20.11 16.293 36.403 36.403 36.403h63.727c20.11 0 36.403-16.293 36.403-36.403v-302.66c0.002-20.108-16.293-36.403-36.403-36.403zM376.566 187.734h15.968c9.427 0 17.066-7.641 17.066-17.066s-7.641-17.066-17.066-17.066h-15.968c8.402-67.35 65.805-119.466 135.433-119.466s127.030 52.116 135.433 119.466h-15.968c-9.427 0-17.066 7.641-17.066 17.066s7.641 17.066 17.066 17.066h15.968c-7.704 61.754-56.612 110.662-118.366 118.366v-15.968c0-9.427-7.641-17.066-17.066-17.066s-17.066 7.641-17.066 17.066v15.968c-61.756-7.704-110.664-56.612-118.37-118.366zM425.444 324.911c27.489 10.773 56.675 16.421 86.555 16.421s59.066-5.649 86.555-16.421l25.354 67.623h-223.814l25.352-67.623zM102.403 680.392c0 1.259-1.013 2.269-2.269 2.269h-63.729c-1.259 0-2.269-1.013-2.269-2.269v-302.66c0-1.259 1.013-2.269 2.269-2.269h63.727c1.259 0 2.269 1.013 2.269 2.269v302.66zM409.602 987.593c0 1.259-1.013 2.269-2.269 2.269h-200.26c-1.259 0-2.269-1.013-2.269-2.269v-65.996h204.798v65.996zM460.804 821.469v63.727c0 1.259-1.013 2.269-2.269 2.269h-302.66c-1.259 0-2.269-1.013-2.269-2.269v-63.727c0-1.259 1.013-2.269 2.269-2.269h302.658c1.259-0.002 2.271 1.011 2.271 2.269zM819.202 987.593c0 1.259-1.013 2.269-2.269 2.269h-200.26c-1.259 0-2.269-1.013-2.269-2.269v-65.996h204.798v65.996zM870.401 821.469v63.727c0 1.259-1.013 2.269-2.269 2.269h-302.66c-1.259 0-2.269-1.013-2.269-2.269v-63.727c0-1.259 1.013-2.269 2.269-2.269h302.658c1.261-0.002 2.271 1.011 2.271 2.269zM836.266 631.465h-34.134c-9.427 0-17.066 7.641-17.066 17.066s7.641 17.066 17.066 17.066h17.066v119.466h-204.798v-119.466h85.333c9.427 0 17.066-7.641 17.066-17.066s-7.641-17.066-17.066-17.066h-307.199c-9.427 0-17.066 7.641-17.066 17.066s7.641 17.066 17.066 17.066h17.066v119.466h-204.798v-119.466h51.199c9.427 0 17.066-7.641 17.066-17.066s-7.641-17.066-17.066-17.066h-119.464v-204.798h750.929v204.798h-51.199zM989.864 680.392c0 1.259-1.013 2.269-2.269 2.269h-63.727c-1.259 0-2.269-1.013-2.269-2.269v-302.66c0-1.259 1.013-2.269 2.269-2.269h63.727c1.259 0 2.269 1.013 2.269 2.269v302.66z"></path>
<path fill="#000" d="M511.999 221.868c28.267 0 51.199-22.932 51.199-51.199 0-22.281-14.254-41.24-34.134-48.273v-19.994c0-9.427-7.641-17.066-17.066-17.066s-17.066 7.641-17.066 17.066v19.994c-19.88 7.033-34.134 25.99-34.134 48.273 0 28.265 22.932 51.199 51.199 51.199zM511.999 153.601c9.416 0 17.066 7.651 17.066 17.066s-7.651 17.066-17.066 17.066-17.066-7.651-17.066-17.066 7.649-17.066 17.066-17.066z"></path>
</svg>
